<svg width="36" height="87" viewBox="0 0 36 87" fill="none" xmlns="http://www.w3.org/2000/svg">
<g id="Group 2">
<rect id="Co-mingle green" width="36" height="87" fill="#00A97F"/>
<g id="co mingle white" filter="url(#filter0_i_5_3)">
<rect x="2" y="8" width="32" height="20" fill="white"/>
</g>
<rect id="co mingle black" x="2" y="39" width="32" height="42" fill="#1A1A1A"/>
<path id="PLASTIC PAPERBOARD METALS NEWSPAPER" d="M10.8086 44.998V46H10.2227V43.1562H11.332C11.5456 43.1562 11.7331 43.1953 11.8945 43.2734C12.0573 43.3516 12.1823 43.4629 12.2695 43.6074C12.3568 43.7507 12.4004 43.9141 12.4004 44.0977C12.4004 44.3763 12.3047 44.5964 12.1133 44.7578C11.9232 44.918 11.6595 44.998 11.3223 44.998H10.8086ZM10.8086 44.5234H11.332C11.487 44.5234 11.6048 44.487 11.6855 44.4141C11.7676 44.3411 11.8086 44.237 11.8086 44.1016C11.8086 43.9622 11.7676 43.8496 11.6855 43.7637C11.6035 43.6777 11.4902 43.6335 11.3457 43.6309H10.8086V44.5234ZM13.3906 45.5293H14.6348V46H12.8047V43.1562H13.3906V45.5293ZM16.6172 45.4141H15.5898L15.3945 46H14.7715L15.8301 43.1562H16.373L17.4375 46H16.8145L16.6172 45.4141ZM15.748 44.9395H16.459L16.1016 43.875L15.748 44.9395ZM19.1777 45.2539C19.1777 45.1432 19.1387 45.0586 19.0605 45C18.9824 44.9401 18.8418 44.8776 18.6387 44.8125C18.4355 44.7461 18.2747 44.681 18.1562 44.6172C17.8333 44.4427 17.6719 44.2077 17.6719 43.9121C17.6719 43.7585 17.7148 43.6217 17.8008 43.502C17.888 43.3809 18.0124 43.2865 18.1738 43.2188C18.3366 43.151 18.5189 43.1172 18.7207 43.1172C18.9238 43.1172 19.1048 43.1543 19.2637 43.2285C19.4225 43.3014 19.5456 43.4049 19.6328 43.5391C19.7214 43.6732 19.7656 43.8255 19.7656 43.9961H19.1797C19.1797 43.8659 19.1387 43.765 19.0566 43.6934C18.9746 43.6204 18.8594 43.584 18.7109 43.584C18.5677 43.584 18.4564 43.6146 18.377 43.6758C18.2975 43.7357 18.2578 43.8151 18.2578 43.9141C18.2578 44.0065 18.304 44.084 18.3965 44.1465C18.4902 44.209 18.6276 44.2676 18.8086 44.3223C19.1419 44.4225 19.3848 44.5469 19.5371 44.6953C19.6895 44.8438 19.7656 45.0286 19.7656 45.25C19.7656 45.4961 19.6725 45.6895 19.4863 45.8301C19.3001 45.9694 19.0495 46.0391 18.7344 46.0391C18.5156 46.0391 18.3164 45.9993 18.1367 45.9199C17.957 45.8392 17.8197 45.7292 17.7246 45.5898C17.6309 45.4505 17.584 45.2891 17.584 45.1055H18.1719C18.1719 45.4193 18.3594 45.5762 18.7344 45.5762C18.8737 45.5762 18.9824 45.5482 19.0605 45.4922C19.1387 45.4349 19.1777 45.3555 19.1777 45.2539ZM22.3047 43.6309H21.4336V46H20.8477V43.6309H19.9883V43.1562H22.3047V43.6309ZM23.2637 46H22.6777V43.1562H23.2637V46ZM26.041 45.0527C26.0189 45.3587 25.9056 45.5996 25.7012 45.7754C25.498 45.9512 25.2298 46.0391 24.8965 46.0391C24.5319 46.0391 24.2448 45.9167 24.0352 45.6719C23.8268 45.4258 23.7227 45.0885 23.7227 44.6602V44.4863C23.7227 44.2129 23.7708 43.972 23.8672 43.7637C23.9635 43.5553 24.1009 43.3958 24.2793 43.2852C24.459 43.1732 24.6673 43.1172 24.9043 43.1172C25.2324 43.1172 25.4967 43.2051 25.6973 43.3809C25.8978 43.5566 26.0137 43.8034 26.0449 44.1211H25.459C25.4447 43.9375 25.3932 43.8047 25.3047 43.7227C25.2174 43.6393 25.084 43.5977 24.9043 43.5977C24.709 43.5977 24.5625 43.668 24.4648 43.8086C24.3685 43.9479 24.319 44.1647 24.3164 44.459V44.6738C24.3164 44.9811 24.3626 45.2057 24.4551 45.3477C24.5488 45.4896 24.696 45.5605 24.8965 45.5605C25.0775 45.5605 25.2122 45.5195 25.3008 45.4375C25.3906 45.3542 25.4421 45.2259 25.4551 45.0527H26.041ZM5.82812 54.998V56H5.24219V53.1562H6.35156C6.5651 53.1562 6.7526 53.1953 6.91406 53.2734C7.07682 53.3516 7.20182 53.4629 7.28906 53.6074C7.3763 53.7507 7.41992 53.9141 7.41992 54.0977C7.41992 54.3763 7.32422 54.5964 7.13281 54.7578C6.94271 54.918 6.67904 54.998 6.3418 54.998H5.82812ZM5.82812 54.5234H6.35156C6.50651 54.5234 6.62435 54.487 6.70508 54.4141C6.78711 54.3411 6.82812 54.237 6.82812 54.1016C6.82812 53.9622 6.78711 53.8496 6.70508 53.7637C6.62305 53.6777 6.50977 53.6335 6.36523 53.6309H5.82812V54.5234ZM9.08203 55.4141H8.05469L7.85938 56H7.23633L8.29492 53.1562H8.83789L9.90234 56H9.2793L9.08203 55.4141ZM8.21289 54.9395H8.92383L8.56641 53.875L8.21289 54.9395ZM10.7539 54.998V56H10.168V53.1562H11.2773C11.4909 53.1562 11.6784 53.1953 11.8398 53.2734C12.0026 53.3516 12.1276 53.4629 12.2148 53.6074C12.3021 53.7507 12.3457 53.9141 12.3457 54.0977C12.3457 54.3763 12.25 54.5964 12.0586 54.7578C11.8685 54.918 11.6048 54.998 11.2676 54.998H10.7539ZM10.7539 54.5234H11.2773C11.4323 54.5234 11.5501 54.487 11.6309 54.4141C11.7129 54.3411 11.7539 54.237 11.7539 54.1016C11.7539 53.9622 11.7129 53.8496 11.6309 53.7637C11.5488 53.6777 11.4355 53.6335 11.291 53.6309H10.7539V54.5234ZM14.4609 54.7676H13.3359V55.5293H14.6562V56H12.75V53.1562H14.6523V53.6309H13.3359V54.3086H14.4609V54.7676ZM16.0527 54.959H15.5859V56H15V53.1562H16.0566C16.3926 53.1562 16.6517 53.2311 16.834 53.3809C17.0163 53.5306 17.1074 53.7422 17.1074 54.0156C17.1074 54.2096 17.0651 54.3717 16.9805 54.502C16.8971 54.6309 16.7702 54.7337 16.5996 54.8105L17.2148 55.9727V56H16.5859L16.0527 54.959ZM15.5859 54.4844H16.0586C16.2057 54.4844 16.3197 54.4473 16.4004 54.373C16.4811 54.2975 16.5215 54.194 16.5215 54.0625C16.5215 53.9284 16.4831 53.8229 16.4062 53.7461C16.3307 53.6693 16.2142 53.6309 16.0566 53.6309H15.5859V54.4844ZM17.5547 56V53.1562H18.5508C18.8958 53.1562 19.1576 53.2227 19.3359 53.3555C19.5143 53.487 19.6035 53.6803 19.6035 53.9355C19.6035 54.0749 19.5677 54.1979 19.4961 54.3047C19.4245 54.4102 19.3249 54.4876 19.1973 54.5371C19.3431 54.5736 19.4577 54.6471 19.541 54.7578C19.6257 54.8685 19.668 55.0039 19.668 55.1641C19.668 55.4375 19.5807 55.6445 19.4062 55.7852C19.2318 55.9258 18.9831 55.9974 18.6602 56H17.5547ZM18.1406 54.7617V55.5293H18.6426C18.7806 55.5293 18.888 55.4967 18.9648 55.4316C19.043 55.3652 19.082 55.2741 19.082 55.1582C19.082 54.8978 18.9473 54.7656 18.6777 54.7617H18.1406ZM18.1406 54.3477H18.5742C18.8698 54.3424 19.0176 54.2246 19.0176 53.9941C19.0176 53.8652 18.9798 53.7728 18.9043 53.7168C18.8301 53.6595 18.7122 53.6309 18.5508 53.6309H18.1406V54.3477ZM22.4453 54.6426C22.4453 54.9225 22.3958 55.168 22.2969 55.3789C22.1979 55.5898 22.056 55.7526 21.8711 55.8672C21.6875 55.9818 21.4766 56.0391 21.2383 56.0391C21.0026 56.0391 20.7923 55.9824 20.6074 55.8691C20.4225 55.7559 20.2793 55.5944 20.1777 55.3848C20.0762 55.1738 20.0247 54.9316 20.0234 54.6582V54.5176C20.0234 54.2376 20.0736 53.9915 20.1738 53.7793C20.2754 53.5658 20.418 53.4023 20.6016 53.2891C20.7865 53.1745 20.9974 53.1172 21.2344 53.1172C21.4714 53.1172 21.6816 53.1745 21.8652 53.2891C22.0501 53.4023 22.1927 53.5658 22.293 53.7793C22.3945 53.9915 22.4453 54.237 22.4453 54.5156V54.6426ZM21.8516 54.5137C21.8516 54.2155 21.7982 53.9889 21.6914 53.834C21.5846 53.679 21.4323 53.6016 21.2344 53.6016C21.0378 53.6016 20.8861 53.6784 20.7793 53.832C20.6725 53.9844 20.6185 54.2083 20.6172 54.5039V54.6426C20.6172 54.9329 20.6706 55.1582 20.7773 55.3184C20.8841 55.4785 21.0378 55.5586 21.2383 55.5586C21.4349 55.5586 21.5859 55.4818 21.6914 55.3281C21.7969 55.1732 21.8503 54.9479 21.8516 54.6523V54.5137ZM24.4336 55.4141H23.4062L23.2109 56H22.5879L23.6465 53.1562H24.1895L25.2539 56H24.6309L24.4336 55.4141ZM23.5645 54.9395H24.2754L23.918 53.875L23.5645 54.9395ZM26.5723 54.959H26.1055V56H25.5195V53.1562H26.5762C26.9121 53.1562 27.1712 53.2311 27.3535 53.3809C27.5358 53.5306 27.627 53.7422 27.627 54.0156C27.627 54.2096 27.5846 54.3717 27.5 54.502C27.4167 54.6309 27.2897 54.7337 27.1191 54.8105L27.7344 55.9727V56H27.1055L26.5723 54.959ZM26.1055 54.4844H26.5781C26.7253 54.4844 26.8392 54.4473 26.9199 54.373C27.0007 54.2975 27.041 54.194 27.041 54.0625C27.041 53.9284 27.0026 53.8229 26.9258 53.7461C26.8503 53.6693 26.7337 53.6309 26.5762 53.6309H26.1055V54.4844ZM28.0742 56V53.1562H28.9492C29.1992 53.1562 29.4225 53.2129 29.6191 53.3262C29.8171 53.4382 29.9714 53.5983 30.082 53.8066C30.1927 54.0137 30.248 54.2493 30.248 54.5137V54.6445C30.248 54.9089 30.1934 55.1439 30.084 55.3496C29.9759 55.5553 29.8229 55.7148 29.625 55.8281C29.4271 55.9414 29.2038 55.9987 28.9551 56H28.0742ZM28.6602 53.6309V55.5293H28.9434C29.1725 55.5293 29.3477 55.4544 29.4688 55.3047C29.5898 55.1549 29.6517 54.9408 29.6543 54.6621V54.5117C29.6543 54.2227 29.5944 54.0039 29.4746 53.8555C29.3548 53.7057 29.1797 53.6309 28.9492 53.6309H28.6602ZM10.9883 63.1562L11.7188 65.2188L12.4453 63.1562H13.2148V66H12.627V65.2227L12.6855 63.8809L11.918 66H11.5156L10.75 63.8828L10.8086 65.2227V66H10.2227V63.1562H10.9883ZM15.4375 64.7676H14.3125V65.5293H15.6328V66H13.7266V63.1562H15.6289V63.6309H14.3125V64.3086H15.4375V64.7676ZM18.1562 63.6309H17.2852V66H16.6992V63.6309H15.8398V63.1562H18.1562V63.6309ZM19.8633 65.4141H18.8359L18.6406 66H18.0176L19.0762 63.1562H19.6191L20.6836 66H20.0605L19.8633 65.4141ZM18.9941 64.9395H19.7051L19.3477 63.875L18.9941 64.9395ZM21.5352 65.5293H22.7793V66H20.9492V63.1562H21.5352V65.5293ZM24.5918 65.2539C24.5918 65.1432 24.5527 65.0586 24.4746 65C24.3965 64.9401 24.2559 64.8776 24.0527 64.8125C23.8496 64.7461 23.6888 64.681 23.5703 64.6172C23.2474 64.4427 23.0859 64.2077 23.0859 63.9121C23.0859 63.7585 23.1289 63.6217 23.2148 63.502C23.3021 63.3809 23.4264 63.2865 23.5879 63.2188C23.7507 63.151 23.9329 63.1172 24.1348 63.1172C24.3379 63.1172 24.5189 63.1543 24.6777 63.2285C24.8366 63.3014 24.9596 63.4049 25.0469 63.5391C25.1354 63.6732 25.1797 63.8255 25.1797 63.9961H24.5938C24.5938 63.8659 24.5527 63.765 24.4707 63.6934C24.3887 63.6204 24.2734 63.584 24.125 63.584C23.9818 63.584 23.8704 63.6146 23.791 63.6758C23.7116 63.7357 23.6719 63.8151 23.6719 63.9141C23.6719 64.0065 23.7181 64.084 23.8105 64.1465C23.9043 64.209 24.0417 64.2676 24.2227 64.3223C24.556 64.4225 24.7988 64.5469 24.9512 64.6953C25.1035 64.8438 25.1797 65.0286 25.1797 65.25C25.1797 65.4961 25.0866 65.6895 24.9004 65.8301C24.7142 65.9694 24.4635 66.0391 24.1484 66.0391C23.9297 66.0391 23.7305 65.9993 23.5508 65.9199C23.3711 65.8392 23.2337 65.7292 23.1387 65.5898C23.0449 65.4505 22.998 65.2891 22.998 65.1055H23.5859C23.5859 65.4193 23.7734 65.5762 24.1484 65.5762C24.2878 65.5762 24.3965 65.5482 24.4746 65.4922C24.5527 65.4349 24.5918 65.3555 24.5918 65.2539ZM8.55078 76H7.96484L6.82422 74.1289V76H6.23828V73.1562H6.82422L7.9668 75.0312V73.1562H8.55078V76ZM10.7734 74.7676H9.64844V75.5293H10.9688V76H9.0625V73.1562H10.9648V73.6309H9.64844V74.3086H10.7734V74.7676ZM13.5273 75.1797L13.9102 73.1562H14.4941L13.8633 76H13.2734L12.8105 74.0977L12.3477 76H11.7578L11.127 73.1562H11.7109L12.0957 75.1758L12.5645 73.1562H13.0605L13.5273 75.1797ZM16.2871 75.2539C16.2871 75.1432 16.248 75.0586 16.1699 75C16.0918 74.9401 15.9512 74.8776 15.748 74.8125C15.5449 74.7461 15.3841 74.681 15.2656 74.6172C14.9427 74.4427 14.7812 74.2077 14.7812 73.9121C14.7812 73.7585 14.8242 73.6217 14.9102 73.502C14.9974 73.3809 15.1217 73.2865 15.2832 73.2188C15.446 73.151 15.6283 73.1172 15.8301 73.1172C16.0332 73.1172 16.2142 73.1543 16.373 73.2285C16.5319 73.3014 16.6549 73.4049 16.7422 73.5391C16.8307 73.6732 16.875 73.8255 16.875 73.9961H16.2891C16.2891 73.8659 16.248 73.765 16.166 73.6934C16.084 73.6204 15.9688 73.584 15.8203 73.584C15.6771 73.584 15.5658 73.6146 15.4863 73.6758C15.4069 73.7357 15.3672 73.8151 15.3672 73.9141C15.3672 74.0065 15.4134 74.084 15.5059 74.1465C15.5996 74.209 15.737 74.2676 15.918 74.3223C16.2513 74.4225 16.4941 74.5469 16.6465 74.6953C16.7988 74.8438 16.875 75.0286 16.875 75.25C16.875 75.4961 16.7819 75.6895 16.5957 75.8301C16.4095 75.9694 16.1589 76.0391 15.8438 76.0391C15.625 76.0391 15.4258 75.9993 15.2461 75.9199C15.0664 75.8392 14.929 75.7292 14.834 75.5898C14.7402 75.4505 14.6934 75.2891 14.6934 75.1055H15.2812C15.2812 75.4193 15.4688 75.5762 15.8438 75.5762C15.9831 75.5762 16.0918 75.5482 16.1699 75.4922C16.248 75.4349 16.2871 75.3555 16.2871 75.2539ZM17.8594 74.998V76H17.2734V73.1562H18.3828C18.5964 73.1562 18.7839 73.1953 18.9453 73.2734C19.1081 73.3516 19.2331 73.4629 19.3203 73.6074C19.4076 73.7507 19.4512 73.9141 19.4512 74.0977C19.4512 74.3763 19.3555 74.5964 19.1641 74.7578C18.974 74.918 18.7103 74.998 18.373 74.998H17.8594ZM17.8594 74.5234H18.3828C18.5378 74.5234 18.6556 74.487 18.7363 74.4141C18.8184 74.3411 18.8594 74.237 18.8594 74.1016C18.8594 73.9622 18.8184 73.8496 18.7363 73.7637C18.6543 73.6777 18.541 73.6335 18.3965 73.6309H17.8594V74.5234ZM21.1133 75.4141H20.0859L19.8906 76H19.2676L20.3262 73.1562H20.8691L21.9336 76H21.3105L21.1133 75.4141ZM20.2441 74.9395H20.9551L20.5977 73.875L20.2441 74.9395ZM22.7852 74.998V76H22.1992V73.1562H23.3086C23.5221 73.1562 23.7096 73.1953 23.8711 73.2734C24.0339 73.3516 24.1589 73.4629 24.2461 73.6074C24.3333 73.7507 24.377 73.9141 24.377 74.0977C24.377 74.3763 24.2812 74.5964 24.0898 74.7578C23.8997 74.918 23.6361 74.998 23.2988 74.998H22.7852ZM22.7852 74.5234H23.3086C23.4635 74.5234 23.5814 74.487 23.6621 74.4141C23.7441 74.3411 23.7852 74.237 23.7852 74.1016C23.7852 73.9622 23.7441 73.8496 23.6621 73.7637C23.5801 73.6777 23.4668 73.6335 23.3223 73.6309H22.7852V74.5234ZM26.4922 74.7676H25.3672V75.5293H26.6875V76H24.7812V73.1562H26.6836V73.6309H25.3672V74.3086H26.4922V74.7676ZM28.084 74.959H27.6172V76H27.0312V73.1562H28.0879C28.4238 73.1562 28.6829 73.2311 28.8652 73.3809C29.0475 73.5306 29.1387 73.7422 29.1387 74.0156C29.1387 74.2096 29.0964 74.3717 29.0117 74.502C28.9284 74.6309 28.8014 74.7337 28.6309 74.8105L29.2461 75.9727V76H28.6172L28.084 74.959ZM27.6172 74.4844H28.0898C28.237 74.4844 28.3509 74.4473 28.4316 74.373C28.5124 74.2975 28.5527 74.194 28.5527 74.0625C28.5527 73.9284 28.5143 73.8229 28.4375 73.7461C28.362 73.6693 28.2454 73.6309 28.0879 73.6309H27.6172V74.4844Z" fill="white"/>
<path id="CO-MINGLED" d="M6.07373 3.84277C6.03792 4.22201 5.89795 4.51823 5.65381 4.73145C5.40967 4.94303 5.08496 5.04883 4.67969 5.04883C4.39648 5.04883 4.14665 4.9821 3.93018 4.84863C3.71533 4.71354 3.54932 4.5223 3.43213 4.2749C3.31494 4.02751 3.25391 3.74023 3.24902 3.41309V3.08105C3.24902 2.74577 3.30843 2.45036 3.42725 2.19482C3.54606 1.93929 3.71615 1.74235 3.9375 1.604C4.16048 1.46566 4.41764 1.39648 4.70898 1.39648C5.10124 1.39648 5.41699 1.50309 5.65625 1.71631C5.89551 1.92952 6.03467 2.23063 6.07373 2.61963H5.4585C5.4292 2.3641 5.35433 2.18018 5.23389 2.06787C5.11507 1.95394 4.9401 1.89697 4.70898 1.89697C4.44043 1.89697 4.23372 1.99544 4.08887 2.19238C3.94564 2.3877 3.8724 2.67497 3.86914 3.0542V3.36914C3.86914 3.75326 3.9375 4.04622 4.07422 4.24805C4.21257 4.44987 4.41439 4.55078 4.67969 4.55078C4.9222 4.55078 5.10449 4.49626 5.22656 4.38721C5.34863 4.27816 5.42594 4.09668 5.4585 3.84277H6.07373ZM9.46484 3.31543C9.46484 3.66374 9.40462 3.96973 9.28418 4.2334C9.16374 4.49544 8.99121 4.69727 8.7666 4.83887C8.54362 4.97884 8.28646 5.04883 7.99512 5.04883C7.70703 5.04883 7.44987 4.97884 7.22363 4.83887C6.99902 4.69727 6.82487 4.49626 6.70117 4.23584C6.5791 3.97542 6.51725 3.67513 6.51562 3.33496V3.13477C6.51562 2.78809 6.57666 2.4821 6.69873 2.2168C6.82243 1.9515 6.99577 1.74886 7.21875 1.60889C7.44336 1.46729 7.70052 1.39648 7.99023 1.39648C8.27995 1.39648 8.5363 1.46647 8.75928 1.60645C8.98389 1.74479 9.15723 1.94499 9.2793 2.20703C9.40137 2.46745 9.46322 2.771 9.46484 3.11768V3.31543ZM8.84717 3.12988C8.84717 2.736 8.7723 2.43408 8.62256 2.22412C8.47445 2.01416 8.26367 1.90918 7.99023 1.90918C7.72331 1.90918 7.51416 2.01416 7.36279 2.22412C7.21305 2.43245 7.13656 2.72786 7.1333 3.11035V3.31543C7.1333 3.70605 7.20898 4.00798 7.36035 4.22119C7.51335 4.43441 7.72493 4.54102 7.99512 4.54102C8.26855 4.54102 8.47852 4.43685 8.625 4.22852C8.77311 4.02018 8.84717 3.71582 8.84717 3.31543V3.12988ZM11.1738 3.72803H9.89209V3.24951H11.1738V3.72803ZM12.5215 1.44531L13.5469 4.16992L14.5698 1.44531H15.3682V5H14.7529V3.82812L14.814 2.26074L13.7642 5H13.3223L12.2749 2.26318L12.3359 3.82812V5H11.7207V1.44531H12.5215ZM16.7524 5H16.1372V1.44531H16.7524V5ZM20.3315 5H19.7139L18.1294 2.47803V5H17.5117V1.44531H18.1294L19.7188 3.97705V1.44531H20.3315V5ZM23.7861 4.53857C23.6576 4.70622 23.4793 4.83317 23.2515 4.91943C23.0236 5.0057 22.7648 5.04883 22.4751 5.04883C22.1772 5.04883 21.9136 4.98128 21.6841 4.84619C21.4546 4.7111 21.2772 4.51823 21.1519 4.26758C21.0282 4.0153 20.9639 3.72152 20.959 3.38623V3.10791C20.959 2.5708 21.0876 2.15169 21.3447 1.85059C21.6019 1.54785 21.9608 1.39648 22.4214 1.39648C22.8169 1.39648 23.131 1.49414 23.3638 1.68945C23.5965 1.88477 23.7365 2.16634 23.7837 2.53418H23.1782C23.1099 2.10612 22.8617 1.89209 22.4336 1.89209C22.1569 1.89209 21.9461 1.99219 21.8013 2.19238C21.658 2.39095 21.584 2.68311 21.5791 3.06885V3.34229C21.5791 3.7264 21.6597 4.02507 21.8208 4.23828C21.9836 4.44987 22.209 4.55566 22.4971 4.55566C22.8128 4.55566 23.0374 4.48405 23.1709 4.34082V3.64502H22.4385V3.17627H23.7861V4.53857ZM25.0825 4.50684H26.6963V5H24.4648V1.44531H25.0825V4.50684ZM29.2476 3.41309H27.7876V4.50684H29.4941V5H27.1699V1.44531H29.4771V1.94336H27.7876V2.9248H29.2476V3.41309ZM29.9971 5V1.44531H31.0469C31.361 1.44531 31.6393 1.5153 31.8818 1.65527C32.126 1.79525 32.3148 1.99382 32.4482 2.25098C32.5817 2.50814 32.6484 2.80273 32.6484 3.13477V3.31299C32.6484 3.6499 32.5809 3.94613 32.4458 4.20166C32.3123 4.45719 32.1211 4.65413 31.8721 4.79248C31.6247 4.93083 31.3407 5 31.02 5H29.9971ZM30.6147 1.94336V4.50684H31.0176C31.3415 4.50684 31.5897 4.40592 31.7622 4.2041C31.9364 4.00065 32.0251 3.70931 32.0283 3.33008V3.13232C32.0283 2.74658 31.9445 2.45199 31.7769 2.24854C31.6092 2.04508 31.3659 1.94336 31.0469 1.94336H30.6147Z" fill="#1A1A1A"/>
</g>
<defs>
<filter id="filter0_i_5_3" x="2" y="8" width="32" height="24" filterUnits="userSpaceOnUse" color-interpolation-filters="sRGB">
<feFlood flood-opacity="0" result="BackgroundImageFix"/>
<feBlend mode="normal" in="SourceGraphic" in2="BackgroundImageFix" result="shape"/>
<feColorMatrix in="SourceAlpha" type="matrix" values="0 0 0 0 0 0 0 0 0 0 0 0 0 0 0 0 0 0 127 0" result="hardAlpha"/>
<feOffset dy="4"/>
<feGaussianBlur stdDeviation="2"/>
<feComposite in2="hardAlpha" operator="arithmetic" k2="-1" k3="1"/>
<feColorMatrix type="matrix" values="0 0 0 0 0 0 0 0 0 0 0 0 0 0 0 0 0 0 0.25 0"/>
<feBlend mode="normal" in2="shape" result="effect1_innerShadow_5_3"/>
</filter>
</defs>
</svg>
