<svg width="36" height="87" viewBox="0 0 36 87" fill="none" xmlns="http://www.w3.org/2000/svg">
<rect width="36" height="87" fill="#FF8847"/>
<rect x="2" y="39" width="32" height="42" fill="#1A1A1A"/>
<g filter="url(#filter0_i_5_6)">
<rect x="2" y="8" width="32" height="20" fill="white"/>
</g>
<path d="M13.9258 44.8379H12.8008V46H12.2148V43.1562H14.0664V43.6309H12.8008V44.3652H13.9258V44.8379ZM16.7422 44.6426C16.7422 44.9225 16.6927 45.168 16.5938 45.3789C16.4948 45.5898 16.3529 45.7526 16.168 45.8672C15.9844 45.9818 15.7734 46.0391 15.5352 46.0391C15.2995 46.0391 15.0892 45.9824 14.9043 45.8691C14.7194 45.7559 14.5762 45.5944 14.4746 45.3848C14.373 45.1738 14.3216 44.9316 14.3203 44.6582V44.5176C14.3203 44.2376 14.3704 43.9915 14.4707 43.7793C14.5723 43.5658 14.7148 43.4023 14.8984 43.2891C15.0833 43.1745 15.2943 43.1172 15.5312 43.1172C15.7682 43.1172 15.9785 43.1745 16.1621 43.2891C16.347 43.4023 16.4896 43.5658 16.5898 43.7793C16.6914 43.9915 16.7422 44.237 16.7422 44.5156V44.6426ZM16.1484 44.5137C16.1484 44.2155 16.0951 43.9889 15.9883 43.834C15.8815 43.679 15.7292 43.6016 15.5312 43.6016C15.3346 43.6016 15.1829 43.6784 15.0762 43.832C14.9694 43.9844 14.9154 44.2083 14.9141 44.5039V44.6426C14.9141 44.9329 14.9674 45.1582 15.0742 45.3184C15.181 45.4785 15.3346 45.5586 15.5352 45.5586C15.7318 45.5586 15.8828 45.4818 15.9883 45.3281C16.0938 45.1732 16.1471 44.9479 16.1484 44.6523V44.5137ZM19.5039 44.6426C19.5039 44.9225 19.4544 45.168 19.3555 45.3789C19.2565 45.5898 19.1146 45.7526 18.9297 45.8672C18.7461 45.9818 18.5352 46.0391 18.2969 46.0391C18.0612 46.0391 17.8509 45.9824 17.666 45.8691C17.4811 45.7559 17.3379 45.5944 17.2363 45.3848C17.1348 45.1738 17.0833 44.9316 17.082 44.6582V44.5176C17.082 44.2376 17.1322 43.9915 17.2324 43.7793C17.334 43.5658 17.4766 43.4023 17.6602 43.2891C17.8451 43.1745 18.056 43.1172 18.293 43.1172C18.5299 43.1172 18.7402 43.1745 18.9238 43.2891C19.1087 43.4023 19.2513 43.5658 19.3516 43.7793C19.4531 43.9915 19.5039 44.237 19.5039 44.5156V44.6426ZM18.9102 44.5137C18.9102 44.2155 18.8568 43.9889 18.75 43.834C18.6432 43.679 18.4909 43.6016 18.293 43.6016C18.0964 43.6016 17.9447 43.6784 17.8379 43.832C17.7311 43.9844 17.6771 44.2083 17.6758 44.5039V44.6426C17.6758 44.9329 17.7292 45.1582 17.8359 45.3184C17.9427 45.4785 18.0964 45.5586 18.2969 45.5586C18.4935 45.5586 18.6445 45.4818 18.75 45.3281C18.8555 45.1732 18.9089 44.9479 18.9102 44.6523V44.5137ZM19.9297 46V43.1562H20.8047C21.0547 43.1562 21.278 43.2129 21.4746 43.3262C21.6725 43.4382 21.8268 43.5983 21.9375 43.8066C22.0482 44.0137 22.1035 44.2493 22.1035 44.5137V44.6445C22.1035 44.9089 22.0488 45.1439 21.9395 45.3496C21.8314 45.5553 21.6784 45.7148 21.4805 45.8281C21.2826 45.9414 21.0592 45.9987 20.8105 46H19.9297ZM20.5156 43.6309V45.5293H20.7988C21.028 45.5293 21.2031 45.4544 21.3242 45.3047C21.4453 45.1549 21.5072 44.9408 21.5098 44.6621V44.5117C21.5098 44.2227 21.4499 44.0039 21.3301 43.8555C21.2103 43.7057 21.0352 43.6309 20.8047 43.6309H20.5156ZM5.71484 54.1284H4.87109V55H4.43164V52.8672H5.82031V53.2231H4.87109V53.7739H5.71484V54.1284ZM7.82715 53.9819C7.82715 54.1919 7.79004 54.376 7.71582 54.5342C7.6416 54.6924 7.53516 54.8145 7.39648 54.9004C7.25879 54.9863 7.10059 55.0293 6.92188 55.0293C6.74512 55.0293 6.5874 54.9868 6.44873 54.9019C6.31006 54.8169 6.20264 54.6958 6.12646 54.5386C6.05029 54.3804 6.01172 54.1987 6.01074 53.9937V53.8882C6.01074 53.6782 6.04834 53.4937 6.12354 53.3345C6.19971 53.1743 6.30664 53.0518 6.44434 52.9668C6.58301 52.8809 6.74121 52.8379 6.91895 52.8379C7.09668 52.8379 7.25439 52.8809 7.39209 52.9668C7.53076 53.0518 7.6377 53.1743 7.71289 53.3345C7.78906 53.4937 7.82715 53.6777 7.82715 53.8867V53.9819ZM7.38184 53.8853C7.38184 53.6616 7.3418 53.4917 7.26172 53.3755C7.18164 53.2593 7.06738 53.2012 6.91895 53.2012C6.77148 53.2012 6.65771 53.2588 6.57764 53.374C6.49756 53.4883 6.45703 53.6562 6.45605 53.8779V53.9819C6.45605 54.1997 6.49609 54.3687 6.57617 54.4888C6.65625 54.6089 6.77148 54.6689 6.92188 54.6689C7.06934 54.6689 7.18262 54.6113 7.26172 54.4961C7.34082 54.3799 7.38086 54.2109 7.38184 53.9893V53.8853ZM9.89844 53.9819C9.89844 54.1919 9.86133 54.376 9.78711 54.5342C9.71289 54.6924 9.60645 54.8145 9.46777 54.9004C9.33008 54.9863 9.17188 55.0293 8.99316 55.0293C8.81641 55.0293 8.65869 54.9868 8.52002 54.9019C8.38135 54.8169 8.27393 54.6958 8.19775 54.5386C8.12158 54.3804 8.08301 54.1987 8.08203 53.9937V53.8882C8.08203 53.6782 8.11963 53.4937 8.19482 53.3345C8.271 53.1743 8.37793 53.0518 8.51562 52.9668C8.6543 52.8809 8.8125 52.8379 8.99023 52.8379C9.16797 52.8379 9.32568 52.8809 9.46338 52.9668C9.60205 53.0518 9.70898 53.1743 9.78418 53.3345C9.86035 53.4937 9.89844 53.6777 9.89844 53.8867V53.9819ZM9.45312 53.8853C9.45312 53.6616 9.41309 53.4917 9.33301 53.3755C9.25293 53.2593 9.13867 53.2012 8.99023 53.2012C8.84277 53.2012 8.729 53.2588 8.64893 53.374C8.56885 53.4883 8.52832 53.6562 8.52734 53.8779V53.9819C8.52734 54.1997 8.56738 54.3687 8.64746 54.4888C8.72754 54.6089 8.84277 54.6689 8.99316 54.6689C9.14062 54.6689 9.25391 54.6113 9.33301 54.4961C9.41211 54.3799 9.45215 54.2109 9.45312 53.9893V53.8853ZM10.2178 55V52.8672H10.874C11.0615 52.8672 11.229 52.9097 11.3765 52.9946C11.5249 53.0786 11.6406 53.1987 11.7236 53.355C11.8066 53.5103 11.8481 53.687 11.8481 53.8853V53.9834C11.8481 54.1816 11.8071 54.3579 11.7251 54.5122C11.644 54.6665 11.5293 54.7861 11.3809 54.8711C11.2324 54.9561 11.0649 54.999 10.8784 55H10.2178ZM10.6572 53.2231V54.647H10.8696C11.0415 54.647 11.1729 54.5908 11.2637 54.4785C11.3545 54.3662 11.4009 54.2056 11.4028 53.9966V53.8838C11.4028 53.667 11.3579 53.5029 11.2681 53.3916C11.1782 53.2793 11.0469 53.2231 10.874 53.2231H10.6572ZM14.5903 54.2896C14.5737 54.519 14.4888 54.6997 14.3354 54.8315C14.1831 54.9634 13.9819 55.0293 13.7319 55.0293C13.4585 55.0293 13.2432 54.9375 13.0859 54.7539C12.9297 54.5693 12.8516 54.3164 12.8516 53.9951V53.8647C12.8516 53.6597 12.8877 53.479 12.96 53.3228C13.0322 53.1665 13.1353 53.0469 13.269 52.9639C13.4038 52.8799 13.5601 52.8379 13.7378 52.8379C13.9839 52.8379 14.1821 52.9038 14.3325 53.0356C14.4829 53.1675 14.5698 53.3525 14.5933 53.5908H14.1538C14.1431 53.4531 14.1045 53.3535 14.0381 53.292C13.9727 53.2295 13.8726 53.1982 13.7378 53.1982C13.5913 53.1982 13.4814 53.251 13.4082 53.3564C13.3359 53.4609 13.2988 53.6235 13.2969 53.8442V54.0054C13.2969 54.2358 13.3315 54.4043 13.4009 54.5107C13.4712 54.6172 13.5815 54.6704 13.7319 54.6704C13.8677 54.6704 13.9688 54.6396 14.0352 54.5781C14.1025 54.5156 14.1411 54.4194 14.1509 54.2896H14.5903ZM16.6309 53.9819C16.6309 54.1919 16.5938 54.376 16.5195 54.5342C16.4453 54.6924 16.3389 54.8145 16.2002 54.9004C16.0625 54.9863 15.9043 55.0293 15.7256 55.0293C15.5488 55.0293 15.3911 54.9868 15.2524 54.9019C15.1138 54.8169 15.0063 54.6958 14.9302 54.5386C14.854 54.3804 14.8154 54.1987 14.8145 53.9937V53.8882C14.8145 53.6782 14.8521 53.4937 14.9272 53.3345C15.0034 53.1743 15.1104 53.0518 15.248 52.9668C15.3867 52.8809 15.5449 52.8379 15.7227 52.8379C15.9004 52.8379 16.0581 52.8809 16.1958 52.9668C16.3345 53.0518 16.4414 53.1743 16.5166 53.3345C16.5928 53.4937 16.6309 53.6777 16.6309 53.8867V53.9819ZM16.1855 53.8853C16.1855 53.6616 16.1455 53.4917 16.0654 53.3755C15.9854 53.2593 15.8711 53.2012 15.7227 53.2012C15.5752 53.2012 15.4614 53.2588 15.3813 53.374C15.3013 53.4883 15.2607 53.6562 15.2598 53.8779V53.9819C15.2598 54.1997 15.2998 54.3687 15.3799 54.4888C15.46 54.6089 15.5752 54.6689 15.7256 54.6689C15.873 54.6689 15.9863 54.6113 16.0654 54.4961C16.1445 54.3799 16.1846 54.2109 16.1855 53.9893V53.8853ZM18.6846 55H18.2451L17.3896 53.5967V55H16.9502V52.8672H17.3896L18.2466 54.2734V52.8672H18.6846V55ZM20.6299 53.2231H19.9766V55H19.5371V53.2231H18.8926V52.8672H20.6299V53.2231ZM21.9102 54.5605H21.1396L20.9932 55H20.5259L21.3198 52.8672H21.7271L22.5254 55H22.0581L21.9102 54.5605ZM21.2583 54.2046H21.7915L21.5234 53.4062L21.2583 54.2046ZM23.1919 55H22.7524V52.8672H23.1919V55ZM25.335 55H24.8955L24.04 53.5967V55H23.6006V52.8672H24.04L24.897 54.2734V52.8672H25.335V55ZM27.002 54.0757H26.1582V54.647H27.1484V55H25.7188V52.8672H27.1455V53.2231H26.1582V53.7314H27.002V54.0757ZM28.1958 54.2192H27.8457V55H27.4062V52.8672H28.1987C28.4507 52.8672 28.645 52.9233 28.7817 53.0356C28.9185 53.1479 28.9868 53.3066 28.9868 53.5117C28.9868 53.6572 28.9551 53.7788 28.8916 53.8765C28.8291 53.9731 28.7339 54.0503 28.606 54.1079L29.0674 54.9795V55H28.5957L28.1958 54.2192ZM27.8457 53.8633H28.2002C28.3105 53.8633 28.396 53.8354 28.4565 53.7798C28.5171 53.7231 28.5474 53.6455 28.5474 53.5469C28.5474 53.4463 28.5186 53.3672 28.4609 53.3096C28.4043 53.252 28.3169 53.2231 28.1987 53.2231H27.8457V53.8633ZM30.4282 54.4404C30.4282 54.3574 30.3989 54.2939 30.3403 54.25C30.2817 54.2051 30.1763 54.1582 30.0239 54.1094C29.8716 54.0596 29.751 54.0107 29.6621 53.9629C29.4199 53.832 29.2988 53.6558 29.2988 53.4341C29.2988 53.3188 29.3311 53.2163 29.3955 53.1265C29.4609 53.0356 29.5542 52.9648 29.6753 52.9141C29.7974 52.8633 29.9341 52.8379 30.0854 52.8379C30.2378 52.8379 30.3735 52.8657 30.4927 52.9214C30.6118 52.9761 30.7041 53.0537 30.7695 53.1543C30.8359 53.2549 30.8691 53.3691 30.8691 53.4971H30.4297C30.4297 53.3994 30.3989 53.3237 30.3374 53.27C30.2759 53.2153 30.1895 53.188 30.0781 53.188C29.9707 53.188 29.8872 53.2109 29.8276 53.2568C29.7681 53.3018 29.7383 53.3613 29.7383 53.4355C29.7383 53.5049 29.7729 53.563 29.8423 53.6099C29.9126 53.6567 30.0156 53.7007 30.1514 53.7417C30.4014 53.8169 30.5835 53.9102 30.6978 54.0215C30.812 54.1328 30.8691 54.2715 30.8691 54.4375C30.8691 54.6221 30.7993 54.7671 30.6597 54.8726C30.52 54.9771 30.332 55.0293 30.0957 55.0293C29.9316 55.0293 29.7822 54.9995 29.6475 54.9399C29.5127 54.8794 29.4097 54.7969 29.3384 54.6924C29.2681 54.5879 29.2329 54.4668 29.2329 54.3291H29.6738C29.6738 54.5645 29.8145 54.6821 30.0957 54.6821C30.2002 54.6821 30.2817 54.6611 30.3403 54.6191C30.3989 54.5762 30.4282 54.5166 30.4282 54.4404ZM5.71484 62.1284H4.87109V63H4.43164V60.8672H5.82031V61.2231H4.87109V61.7739H5.71484V62.1284ZM7.82715 61.9819C7.82715 62.1919 7.79004 62.376 7.71582 62.5342C7.6416 62.6924 7.53516 62.8145 7.39648 62.9004C7.25879 62.9863 7.10059 63.0293 6.92188 63.0293C6.74512 63.0293 6.5874 62.9868 6.44873 62.9019C6.31006 62.8169 6.20264 62.6958 6.12646 62.5386C6.05029 62.3804 6.01172 62.1987 6.01074 61.9937V61.8882C6.01074 61.6782 6.04834 61.4937 6.12354 61.3345C6.19971 61.1743 6.30664 61.0518 6.44434 60.9668C6.58301 60.8809 6.74121 60.8379 6.91895 60.8379C7.09668 60.8379 7.25439 60.8809 7.39209 60.9668C7.53076 61.0518 7.6377 61.1743 7.71289 61.3345C7.78906 61.4937 7.82715 61.6777 7.82715 61.8867V61.9819ZM7.38184 61.8853C7.38184 61.6616 7.3418 61.4917 7.26172 61.3755C7.18164 61.2593 7.06738 61.2012 6.91895 61.2012C6.77148 61.2012 6.65771 61.2588 6.57764 61.374C6.49756 61.4883 6.45703 61.6562 6.45605 61.8779V61.9819C6.45605 62.1997 6.49609 62.3687 6.57617 62.4888C6.65625 62.6089 6.77148 62.6689 6.92188 62.6689C7.06934 62.6689 7.18262 62.6113 7.26172 62.4961C7.34082 62.3799 7.38086 62.2109 7.38184 61.9893V61.8853ZM9.31836 62.5605H8.54785L8.40137 63H7.93408L8.72803 60.8672H9.13525L9.93359 63H9.46631L9.31836 62.5605ZM8.6665 62.2046H9.19971L8.93164 61.4062L8.6665 62.2046ZM10.707 60.8672L11.2549 62.4141L11.7998 60.8672H12.377V63H11.936V62.417L11.98 61.4106L11.4043 63H11.1025L10.5283 61.4121L10.5723 62.417V63H10.1328V60.8672H10.707ZM15.1821 62.2896C15.1655 62.519 15.0806 62.6997 14.9272 62.8315C14.7749 62.9634 14.5737 63.0293 14.3237 63.0293C14.0503 63.0293 13.835 62.9375 13.6777 62.7539C13.5215 62.5693 13.4434 62.3164 13.4434 61.9951V61.8647C13.4434 61.6597 13.4795 61.479 13.5518 61.3228C13.624 61.1665 13.7271 61.0469 13.8608 60.9639C13.9956 60.8799 14.1519 60.8379 14.3296 60.8379C14.5757 60.8379 14.7739 60.9038 14.9243 61.0356C15.0747 61.1675 15.1616 61.3525 15.1851 61.5908H14.7456C14.7349 61.4531 14.6963 61.3535 14.6299 61.292C14.5645 61.2295 14.4644 61.1982 14.3296 61.1982C14.1831 61.1982 14.0732 61.251 14 61.3564C13.9277 61.4609 13.8906 61.6235 13.8887 61.8442V62.0054C13.8887 62.2358 13.9233 62.4043 13.9927 62.5107C14.063 62.6172 14.1733 62.6704 14.3237 62.6704C14.4595 62.6704 14.5605 62.6396 14.627 62.5781C14.6943 62.5156 14.7329 62.4194 14.7427 62.2896H15.1821ZM17.2227 61.9819C17.2227 62.1919 17.1855 62.376 17.1113 62.5342C17.0371 62.6924 16.9307 62.8145 16.792 62.9004C16.6543 62.9863 16.4961 63.0293 16.3174 63.0293C16.1406 63.0293 15.9829 62.9868 15.8442 62.9019C15.7056 62.8169 15.5981 62.6958 15.522 62.5386C15.4458 62.3804 15.4072 62.1987 15.4062 61.9937V61.8882C15.4062 61.6782 15.4438 61.4937 15.519 61.3345C15.5952 61.1743 15.7021 61.0518 15.8398 60.9668C15.9785 60.8809 16.1367 60.8379 16.3145 60.8379C16.4922 60.8379 16.6499 60.8809 16.7876 60.9668C16.9263 61.0518 17.0332 61.1743 17.1084 61.3345C17.1846 61.4937 17.2227 61.6777 17.2227 61.8867V61.9819ZM16.7773 61.8853C16.7773 61.6616 16.7373 61.4917 16.6572 61.3755C16.5771 61.2593 16.4629 61.2012 16.3145 61.2012C16.167 61.2012 16.0532 61.2588 15.9731 61.374C15.8931 61.4883 15.8525 61.6562 15.8516 61.8779V61.9819C15.8516 62.1997 15.8916 62.3687 15.9717 62.4888C16.0518 62.6089 16.167 62.6689 16.3174 62.6689C16.4648 62.6689 16.5781 62.6113 16.6572 62.4961C16.7363 62.3799 16.7764 62.2109 16.7773 61.9893V61.8853ZM19.2764 63H18.8369L17.9814 61.5967V63H17.542V60.8672H17.9814L18.8384 62.2734V60.8672H19.2764V63ZM21.2217 61.2231H20.5684V63H20.1289V61.2231H19.4844V60.8672H21.2217V61.2231ZM22.502 62.5605H21.7314L21.585 63H21.1177L21.9116 60.8672H22.3188L23.1172 63H22.6499L22.502 62.5605ZM21.8501 62.2046H22.3833L22.1152 61.4062L21.8501 62.2046ZM23.7837 63H23.3442V60.8672H23.7837V63ZM25.9268 63H25.4873L24.6318 61.5967V63H24.1924V60.8672H24.6318L25.4888 62.2734V60.8672H25.9268V63ZM27.5938 62.0757H26.75V62.647H27.7402V63H26.3105V60.8672H27.7373V61.2231H26.75V61.7314H27.5938V62.0757ZM28.7876 62.2192H28.4375V63H27.998V60.8672H28.7905C29.0425 60.8672 29.2368 60.9233 29.3735 61.0356C29.5103 61.1479 29.5786 61.3066 29.5786 61.5117C29.5786 61.6572 29.5469 61.7788 29.4834 61.8765C29.4209 61.9731 29.3257 62.0503 29.1978 62.1079L29.6592 62.9795V63H29.1875L28.7876 62.2192ZM28.4375 61.8633H28.792C28.9023 61.8633 28.9878 61.8354 29.0483 61.7798C29.1089 61.7231 29.1392 61.6455 29.1392 61.5469C29.1392 61.4463 29.1104 61.3672 29.0527 61.3096C28.9961 61.252 28.9087 61.2231 28.7905 61.2231H28.4375V61.8633ZM31.02 62.4404C31.02 62.3574 30.9907 62.2939 30.9321 62.25C30.8735 62.2051 30.7681 62.1582 30.6157 62.1094C30.4634 62.0596 30.3428 62.0107 30.2539 61.9629C30.0117 61.832 29.8906 61.6558 29.8906 61.4341C29.8906 61.3188 29.9229 61.2163 29.9873 61.1265C30.0527 61.0356 30.146 60.9648 30.2671 60.9141C30.3892 60.8633 30.5259 60.8379 30.6772 60.8379C30.8296 60.8379 30.9653 60.8657 31.0845 60.9214C31.2036 60.9761 31.2959 61.0537 31.3613 61.1543C31.4277 61.2549 31.4609 61.3691 31.4609 61.4971H31.0215C31.0215 61.3994 30.9907 61.3237 30.9292 61.27C30.8677 61.2153 30.7812 61.188 30.6699 61.188C30.5625 61.188 30.479 61.2109 30.4194 61.2568C30.3599 61.3018 30.3301 61.3613 30.3301 61.4355C30.3301 61.5049 30.3647 61.563 30.4341 61.6099C30.5044 61.6567 30.6074 61.7007 30.7432 61.7417C30.9932 61.8169 31.1753 61.9102 31.2896 62.0215C31.4038 62.1328 31.4609 62.2715 31.4609 62.4375C31.4609 62.6221 31.3911 62.7671 31.2515 62.8726C31.1118 62.9771 30.9238 63.0293 30.6875 63.0293C30.5234 63.0293 30.374 62.9995 30.2393 62.9399C30.1045 62.8794 30.0015 62.7969 29.9302 62.6924C29.8599 62.5879 29.8247 62.4668 29.8247 62.3291H30.2656C30.2656 62.5645 30.4062 62.6821 30.6875 62.6821C30.792 62.6821 30.8735 62.6611 30.9321 62.6191C30.9907 62.5762 31.02 62.5166 31.02 62.4404ZM5.71484 70.1284H4.87109V71H4.43164V68.8672H5.82031V69.2231H4.87109V69.7739H5.71484V70.1284ZM6.54248 71H6.10303V68.8672H6.54248V71ZM7.39062 70.647H8.32373V71H6.95117V68.8672H7.39062V70.647ZM9.15137 68.8672L9.69922 70.4141L10.2441 68.8672H10.8213V71H10.3804V70.417L10.4243 69.4106L9.84863 71H9.54688L8.97266 69.4121L9.0166 70.417V71H8.57715V68.8672H9.15137ZM12.3916 70.2485V71H11.9521V68.8672H12.7842C12.9443 68.8672 13.085 68.8965 13.2061 68.9551C13.3281 69.0137 13.4219 69.0972 13.4873 69.2056C13.5527 69.313 13.5854 69.4355 13.5854 69.5732C13.5854 69.7822 13.5137 69.9473 13.3701 70.0684C13.2275 70.1885 13.0298 70.2485 12.7769 70.2485H12.3916ZM12.3916 69.8926H12.7842C12.9004 69.8926 12.9888 69.8652 13.0493 69.8105C13.1108 69.7559 13.1416 69.6777 13.1416 69.5762C13.1416 69.4717 13.1108 69.3872 13.0493 69.3228C12.9878 69.2583 12.9028 69.2251 12.7944 69.2231H12.3916V69.8926ZM14.3281 70.647H15.2612V71H13.8887V68.8672H14.3281V70.647ZM16.748 70.5605H15.9775L15.8311 71H15.3638L16.1577 68.8672H16.5649L17.3633 71H16.896L16.748 70.5605ZM16.0962 70.2046H16.6294L16.3613 69.4062L16.0962 70.2046ZM18.6685 70.4404C18.6685 70.3574 18.6392 70.2939 18.5806 70.25C18.522 70.2051 18.4165 70.1582 18.2642 70.1094C18.1118 70.0596 17.9912 70.0107 17.9023 69.9629C17.6602 69.832 17.5391 69.6558 17.5391 69.4341C17.5391 69.3188 17.5713 69.2163 17.6357 69.1265C17.7012 69.0356 17.7944 68.9648 17.9155 68.9141C18.0376 68.8633 18.1743 68.8379 18.3257 68.8379C18.478 68.8379 18.6138 68.8657 18.7329 68.9214C18.8521 68.9761 18.9443 69.0537 19.0098 69.1543C19.0762 69.2549 19.1094 69.3691 19.1094 69.4971H18.6699C18.6699 69.3994 18.6392 69.3237 18.5776 69.27C18.5161 69.2153 18.4297 69.188 18.3184 69.188C18.2109 69.188 18.1274 69.2109 18.0679 69.2568C18.0083 69.3018 17.9785 69.3613 17.9785 69.4355C17.9785 69.5049 18.0132 69.563 18.0825 69.6099C18.1528 69.6567 18.2559 69.7007 18.3916 69.7417C18.6416 69.8169 18.8237 69.9102 18.938 70.0215C19.0522 70.1328 19.1094 70.2715 19.1094 70.4375C19.1094 70.6221 19.0396 70.7671 18.8999 70.8726C18.7603 70.9771 18.5723 71.0293 18.3359 71.0293C18.1719 71.0293 18.0225 70.9995 17.8877 70.9399C17.7529 70.8794 17.6499 70.7969 17.5786 70.6924C17.5083 70.5879 17.4731 70.4668 17.4731 70.3291H17.9141C17.9141 70.5645 18.0547 70.6821 18.3359 70.6821C18.4404 70.6821 18.522 70.6611 18.5806 70.6191C18.6392 70.5762 18.6685 70.5166 18.6685 70.4404ZM21.0137 69.2231H20.3604V71H19.9209V69.2231H19.2764V68.8672H21.0137V69.2231ZM21.7329 71H21.2935V68.8672H21.7329V71ZM23.8159 70.2896C23.7993 70.519 23.7144 70.6997 23.561 70.8315C23.4087 70.9634 23.2075 71.0293 22.9575 71.0293C22.6841 71.0293 22.4688 70.9375 22.3115 70.7539C22.1553 70.5693 22.0771 70.3164 22.0771 69.9951V69.8647C22.0771 69.6597 22.1133 69.479 22.1855 69.3228C22.2578 69.1665 22.3608 69.0469 22.4946 68.9639C22.6294 68.8799 22.7856 68.8379 22.9634 68.8379C23.2095 68.8379 23.4077 68.9038 23.5581 69.0356C23.7085 69.1675 23.7954 69.3525 23.8188 69.5908H23.3794C23.3687 69.4531 23.3301 69.3535 23.2637 69.292C23.1982 69.2295 23.0981 69.1982 22.9634 69.1982C22.8169 69.1982 22.707 69.251 22.6338 69.3564C22.5615 69.4609 22.5244 69.6235 22.5225 69.8442V70.0054C22.5225 70.2358 22.5571 70.4043 22.6265 70.5107C22.6968 70.6172 22.8071 70.6704 22.9575 70.6704C23.0933 70.6704 23.1943 70.6396 23.2607 70.5781C23.3281 70.5156 23.3667 70.4194 23.3765 70.2896H23.8159ZM25.2104 70.4404C25.2104 70.3574 25.1812 70.2939 25.1226 70.25C25.064 70.2051 24.9585 70.1582 24.8062 70.1094C24.6538 70.0596 24.5332 70.0107 24.4443 69.9629C24.2021 69.832 24.0811 69.6558 24.0811 69.4341C24.0811 69.3188 24.1133 69.2163 24.1777 69.1265C24.2432 69.0356 24.3364 68.9648 24.4575 68.9141C24.5796 68.8633 24.7163 68.8379 24.8677 68.8379C25.02 68.8379 25.1558 68.8657 25.2749 68.9214C25.394 68.9761 25.4863 69.0537 25.5518 69.1543C25.6182 69.2549 25.6514 69.3691 25.6514 69.4971H25.2119C25.2119 69.3994 25.1812 69.3237 25.1196 69.27C25.0581 69.2153 24.9717 69.188 24.8604 69.188C24.7529 69.188 24.6694 69.2109 24.6099 69.2568C24.5503 69.3018 24.5205 69.3613 24.5205 69.4355C24.5205 69.5049 24.5552 69.563 24.6245 69.6099C24.6948 69.6567 24.7979 69.7007 24.9336 69.7417C25.1836 69.8169 25.3657 69.9102 25.48 70.0215C25.5942 70.1328 25.6514 70.2715 25.6514 70.4375C25.6514 70.6221 25.5815 70.7671 25.4419 70.8726C25.3022 70.9771 25.1143 71.0293 24.8779 71.0293C24.7139 71.0293 24.5645 70.9995 24.4297 70.9399C24.2949 70.8794 24.1919 70.7969 24.1206 70.6924C24.0503 70.5879 24.0151 70.4668 24.0151 70.3291H24.4561C24.4561 70.5645 24.5967 70.6821 24.8779 70.6821C24.9824 70.6821 25.064 70.6611 25.1226 70.6191C25.1812 70.5762 25.2104 70.5166 25.2104 70.4404ZM10.626 74.5049H10.0762V74.2773H10.626V74.5049ZM10.8711 75V73.5781H11.3691C11.5417 73.5781 11.6725 73.6113 11.7617 73.6777C11.8509 73.7435 11.8955 73.8402 11.8955 73.9678C11.8955 74.0374 11.8776 74.099 11.8418 74.1523C11.806 74.2051 11.7562 74.2438 11.6924 74.2686C11.7653 74.2868 11.8226 74.3236 11.8643 74.3789C11.9066 74.4342 11.9277 74.502 11.9277 74.582C11.9277 74.7188 11.8841 74.8223 11.7969 74.8926C11.7096 74.9629 11.5853 74.9987 11.4238 75H10.8711ZM11.1641 74.3809V74.7646H11.415C11.484 74.7646 11.5378 74.7484 11.5762 74.7158C11.6152 74.6826 11.6348 74.637 11.6348 74.5791C11.6348 74.4489 11.5674 74.3828 11.4326 74.3809H11.1641ZM11.1641 74.1738H11.3809C11.5286 74.1712 11.6025 74.1123 11.6025 73.9971C11.6025 73.9326 11.5837 73.8864 11.5459 73.8584C11.5088 73.8298 11.4499 73.8154 11.3691 73.8154H11.1641V74.1738ZM12.9512 74.707H12.4375L12.3398 75H12.0283L12.5576 73.5781H12.8291L13.3613 75H13.0498L12.9512 74.707ZM12.5166 74.4697H12.8721L12.6934 73.9375L12.5166 74.4697ZM14.5977 74.8203C14.5449 74.8835 14.4704 74.9326 14.374 74.9678C14.2777 75.0023 14.1709 75.0195 14.0537 75.0195C13.9307 75.0195 13.8226 74.9928 13.7295 74.9395C13.637 74.8854 13.5654 74.8073 13.5146 74.7051C13.4645 74.6029 13.4388 74.4827 13.4375 74.3447V74.248C13.4375 74.1061 13.4613 73.9834 13.5088 73.8799C13.557 73.7757 13.626 73.6963 13.7158 73.6416C13.8063 73.5863 13.9121 73.5586 14.0332 73.5586C14.2018 73.5586 14.3337 73.599 14.4287 73.6797C14.5238 73.7598 14.5801 73.8766 14.5977 74.0303H14.3125C14.2995 73.9489 14.2705 73.8893 14.2256 73.8516C14.1813 73.8138 14.1201 73.7949 14.042 73.7949C13.9424 73.7949 13.8665 73.8324 13.8145 73.9072C13.7624 73.9821 13.736 74.0934 13.7354 74.2412V74.332C13.7354 74.4811 13.7637 74.5938 13.8203 74.6699C13.877 74.7461 13.96 74.7842 14.0693 74.7842C14.1794 74.7842 14.2578 74.7607 14.3047 74.7139V74.4688H14.0381V74.2529H14.5977V74.8203ZM15.5732 74.627C15.5732 74.5716 15.5537 74.5293 15.5146 74.5C15.4756 74.4701 15.4053 74.4388 15.3037 74.4062C15.2021 74.373 15.1217 74.3405 15.0625 74.3086C14.901 74.2214 14.8203 74.1038 14.8203 73.9561C14.8203 73.8792 14.8418 73.8109 14.8848 73.751C14.9284 73.6904 14.9906 73.6432 15.0713 73.6094C15.1527 73.5755 15.2438 73.5586 15.3447 73.5586C15.4463 73.5586 15.5368 73.5771 15.6162 73.6143C15.6956 73.6507 15.7572 73.7025 15.8008 73.7695C15.8451 73.8366 15.8672 73.9128 15.8672 73.998H15.5742C15.5742 73.9329 15.5537 73.8825 15.5127 73.8467C15.4717 73.8102 15.4141 73.792 15.3398 73.792C15.2682 73.792 15.2126 73.8073 15.1729 73.8379C15.1331 73.8678 15.1133 73.9076 15.1133 73.957C15.1133 74.0033 15.1364 74.042 15.1826 74.0732C15.2295 74.1045 15.2982 74.1338 15.3887 74.1611C15.5553 74.2113 15.6768 74.2734 15.7529 74.3477C15.8291 74.4219 15.8672 74.5143 15.8672 74.625C15.8672 74.748 15.8206 74.8447 15.7275 74.915C15.6344 74.9847 15.5091 75.0195 15.3516 75.0195C15.2422 75.0195 15.1426 74.9997 15.0527 74.96C14.9629 74.9196 14.8942 74.8646 14.8467 74.7949C14.7998 74.7253 14.7764 74.6445 14.7764 74.5527H15.0703C15.0703 74.7096 15.1641 74.7881 15.3516 74.7881C15.4212 74.7881 15.4756 74.7741 15.5146 74.7461C15.5537 74.7174 15.5732 74.6777 15.5732 74.627ZM10.626 76.5049H10.0762V76.2773H10.626V76.5049ZM11.9785 76.5898L12.1699 75.5781H12.4619L12.1465 77H11.8516L11.6201 76.0488L11.3887 77H11.0938L10.7783 75.5781H11.0703L11.2627 76.5879L11.4971 75.5781H11.7451L11.9785 76.5898ZM13.1475 76.4795H12.9141V77H12.6211V75.5781H13.1494C13.3174 75.5781 13.4469 75.6156 13.5381 75.6904C13.6292 75.7653 13.6748 75.8711 13.6748 76.0078C13.6748 76.1048 13.6536 76.1859 13.6113 76.251C13.5697 76.3154 13.5062 76.3669 13.4209 76.4053L13.7285 76.9863V77H13.4141L13.1475 76.4795ZM12.9141 76.2422H13.1504C13.224 76.2422 13.2809 76.2236 13.3213 76.1865C13.3617 76.1488 13.3818 76.097 13.3818 76.0312C13.3818 75.9642 13.3626 75.9115 13.3242 75.873C13.2865 75.8346 13.2282 75.8154 13.1494 75.8154H12.9141V76.2422ZM14.7012 76.707H14.1875L14.0898 77H13.7783L14.3076 75.5781H14.5791L15.1113 77H14.7998L14.7012 76.707ZM14.2666 76.4697H14.6221L14.4434 75.9375L14.2666 76.4697ZM15.5371 76.499V77H15.2441V75.5781H15.7988C15.9056 75.5781 15.9993 75.5977 16.0801 75.6367C16.1615 75.6758 16.224 75.7314 16.2676 75.8037C16.3112 75.8753 16.333 75.957 16.333 76.0488C16.333 76.1882 16.2852 76.2982 16.1895 76.3789C16.0944 76.459 15.9626 76.499 15.7939 76.499H15.5371ZM15.5371 76.2617H15.7988C15.8763 76.2617 15.9352 76.2435 15.9756 76.207C16.0166 76.1706 16.0371 76.1185 16.0371 76.0508C16.0371 75.9811 16.0166 75.9248 15.9756 75.8818C15.9346 75.8389 15.8779 75.8167 15.8057 75.8154H15.5371V76.2617ZM16.8281 76.499V77H16.5352V75.5781H17.0898C17.1966 75.5781 17.2904 75.5977 17.3711 75.6367C17.4525 75.6758 17.515 75.7314 17.5586 75.8037C17.6022 75.8753 17.624 75.957 17.624 76.0488C17.624 76.1882 17.5762 76.2982 17.4805 76.3789C17.3854 76.459 17.2536 76.499 17.085 76.499H16.8281ZM16.8281 76.2617H17.0898C17.1673 76.2617 17.2262 76.2435 17.2666 76.207C17.3076 76.1706 17.3281 76.1185 17.3281 76.0508C17.3281 75.9811 17.3076 75.9248 17.2666 75.8818C17.2256 75.8389 17.1689 75.8167 17.0967 75.8154H16.8281V76.2617ZM18.6816 76.3838H18.1191V76.7646H18.7793V77H17.8262V75.5781H18.7773V75.8154H18.1191V76.1543H18.6816V76.3838ZM19.4775 76.4795H19.2441V77H18.9512V75.5781H19.4795C19.6475 75.5781 19.777 75.6156 19.8682 75.6904C19.9593 75.7653 20.0049 75.8711 20.0049 76.0078C20.0049 76.1048 19.9837 76.1859 19.9414 76.251C19.8997 76.3154 19.8363 76.3669 19.751 76.4053L20.0586 76.9863V77H19.7441L19.4775 76.4795ZM19.2441 76.2422H19.4805C19.554 76.2422 19.611 76.2236 19.6514 76.1865C19.6917 76.1488 19.7119 76.097 19.7119 76.0312C19.7119 75.9642 19.6927 75.9115 19.6543 75.873C19.6165 75.8346 19.5583 75.8154 19.4795 75.8154H19.2441V76.2422ZM20.9658 76.627C20.9658 76.5716 20.9463 76.5293 20.9072 76.5C20.8682 76.4701 20.7979 76.4388 20.6963 76.4062C20.5947 76.373 20.5143 76.3405 20.4551 76.3086C20.2936 76.2214 20.2129 76.1038 20.2129 75.9561C20.2129 75.8792 20.2344 75.8109 20.2773 75.751C20.321 75.6904 20.3831 75.6432 20.4639 75.6094C20.5452 75.5755 20.6364 75.5586 20.7373 75.5586C20.8389 75.5586 20.9294 75.5771 21.0088 75.6143C21.0882 75.6507 21.1497 75.7025 21.1934 75.7695C21.2376 75.8366 21.2598 75.9128 21.2598 75.998H20.9668C20.9668 75.9329 20.9463 75.8825 20.9053 75.8467C20.8643 75.8102 20.8066 75.792 20.7324 75.792C20.6608 75.792 20.6051 75.8073 20.5654 75.8379C20.5257 75.8678 20.5059 75.9076 20.5059 75.957C20.5059 76.0033 20.529 76.042 20.5752 76.0732C20.6221 76.1045 20.6908 76.1338 20.7812 76.1611C20.9479 76.2113 21.0693 76.2734 21.1455 76.3477C21.2217 76.4219 21.2598 76.5143 21.2598 76.625C21.2598 76.748 21.2132 76.8447 21.1201 76.915C21.027 76.9847 20.9017 77.0195 20.7441 77.0195C20.6348 77.0195 20.5352 76.9997 20.4453 76.96C20.3555 76.9196 20.2868 76.8646 20.2393 76.7949C20.1924 76.7253 20.1689 76.6445 20.1689 76.5527H20.4629C20.4629 76.7096 20.5566 76.7881 20.7441 76.7881C20.8138 76.7881 20.8682 76.7741 20.9072 76.7461C20.9463 76.7174 20.9658 76.6777 20.9658 76.627ZM10.626 78.5049H10.0762V78.2773H10.626V78.5049ZM11.6084 78.627C11.6084 78.5716 11.5889 78.5293 11.5498 78.5C11.5107 78.4701 11.4404 78.4388 11.3389 78.4062C11.2373 78.373 11.1569 78.3405 11.0977 78.3086C10.9362 78.2214 10.8555 78.1038 10.8555 77.9561C10.8555 77.8792 10.877 77.8109 10.9199 77.751C10.9635 77.6904 11.0257 77.6432 11.1064 77.6094C11.1878 77.5755 11.279 77.5586 11.3799 77.5586C11.4814 77.5586 11.5719 77.5771 11.6514 77.6143C11.7308 77.6507 11.7923 77.7025 11.8359 77.7695C11.8802 77.8366 11.9023 77.9128 11.9023 77.998H11.6094C11.6094 77.9329 11.5889 77.8825 11.5479 77.8467C11.5068 77.8102 11.4492 77.792 11.375 77.792C11.3034 77.792 11.2477 77.8073 11.208 77.8379C11.1683 77.8678 11.1484 77.9076 11.1484 77.957C11.1484 78.0033 11.1715 78.042 11.2178 78.0732C11.2646 78.1045 11.3333 78.1338 11.4238 78.1611C11.5905 78.2113 11.7119 78.2734 11.7881 78.3477C11.8643 78.4219 11.9023 78.5143 11.9023 78.625C11.9023 78.748 11.8558 78.8447 11.7627 78.915C11.6696 78.9847 11.5443 79.0195 11.3867 79.0195C11.2773 79.0195 11.1777 78.9997 11.0879 78.96C10.998 78.9196 10.9294 78.8646 10.8818 78.7949C10.835 78.7253 10.8115 78.6445 10.8115 78.5527H11.1055C11.1055 78.7096 11.1992 78.7881 11.3867 78.7881C11.4564 78.7881 11.5107 78.7741 11.5498 78.7461C11.5889 78.7174 11.6084 78.6777 11.6084 78.627ZM12.4131 79H12.1201V77.5781H12.4131V79ZM13.8418 79H13.5488L12.9785 78.0645V79H12.6855V77.5781H12.9785L13.5498 78.5156V77.5781H13.8418V79ZM15.2227 78.8203C15.1699 78.8835 15.0954 78.9326 14.999 78.9678C14.9027 79.0023 14.7959 79.0195 14.6787 79.0195C14.5557 79.0195 14.4476 78.9928 14.3545 78.9395C14.262 78.8854 14.1904 78.8073 14.1396 78.7051C14.0895 78.6029 14.0638 78.4827 14.0625 78.3447V78.248C14.0625 78.1061 14.0863 77.9834 14.1338 77.8799C14.182 77.7757 14.251 77.6963 14.3408 77.6416C14.4313 77.5863 14.5371 77.5586 14.6582 77.5586C14.8268 77.5586 14.9587 77.599 15.0537 77.6797C15.1488 77.7598 15.2051 77.8766 15.2227 78.0303H14.9375C14.9245 77.9489 14.8955 77.8893 14.8506 77.8516C14.8063 77.8138 14.7451 77.7949 14.667 77.7949C14.5674 77.7949 14.4915 77.8324 14.4395 77.9072C14.3874 77.9821 14.361 78.0934 14.3604 78.2412V78.332C14.3604 78.4811 14.3887 78.5938 14.4453 78.6699C14.502 78.7461 14.585 78.7842 14.6943 78.7842C14.8044 78.7842 14.8828 78.7607 14.9297 78.7139V78.4688H14.6631V78.2529H15.2227V78.8203ZM15.7539 78.7646H16.376V79H15.4609V77.5781H15.7539V78.7646ZM17.4004 78.3838H16.8379V78.7646H17.498V79H16.5449V77.5781H17.4961V77.8154H16.8379V78.1543H17.4004V78.3838ZM18.2002 78.5049H17.6504V78.2773H18.2002V78.5049ZM19.1826 78.627C19.1826 78.5716 19.1631 78.5293 19.124 78.5C19.085 78.4701 19.0146 78.4388 18.9131 78.4062C18.8115 78.373 18.7311 78.3405 18.6719 78.3086C18.5104 78.2214 18.4297 78.1038 18.4297 77.9561C18.4297 77.8792 18.4512 77.8109 18.4941 77.751C18.5378 77.6904 18.5999 77.6432 18.6807 77.6094C18.762 77.5755 18.8532 77.5586 18.9541 77.5586C19.0557 77.5586 19.1462 77.5771 19.2256 77.6143C19.305 77.6507 19.3665 77.7025 19.4102 77.7695C19.4544 77.8366 19.4766 77.9128 19.4766 77.998H19.1836C19.1836 77.9329 19.1631 77.8825 19.1221 77.8467C19.0811 77.8102 19.0234 77.792 18.9492 77.792C18.8776 77.792 18.8219 77.8073 18.7822 77.8379C18.7425 77.8678 18.7227 77.9076 18.7227 77.957C18.7227 78.0033 18.7458 78.042 18.792 78.0732C18.8389 78.1045 18.9076 78.1338 18.998 78.1611C19.1647 78.2113 19.2861 78.2734 19.3623 78.3477C19.4385 78.4219 19.4766 78.5143 19.4766 78.625C19.4766 78.748 19.43 78.8447 19.3369 78.915C19.2438 78.9847 19.1185 79.0195 18.9609 79.0195C18.8516 79.0195 18.752 78.9997 18.6621 78.96C18.5723 78.9196 18.5036 78.8646 18.4561 78.7949C18.4092 78.7253 18.3857 78.6445 18.3857 78.5527H18.6797C18.6797 78.7096 18.7734 78.7881 18.9609 78.7881C19.0306 78.7881 19.085 78.7741 19.124 78.7461C19.1631 78.7174 19.1826 78.6777 19.1826 78.627ZM20.5312 78.3838H19.9688V78.7646H20.6289V79H19.6758V77.5781H20.627V77.8154H19.9688V78.1543H20.5312V78.3838ZM21.3271 78.4795H21.0938V79H20.8008V77.5781H21.3291C21.4971 77.5781 21.6266 77.6156 21.7178 77.6904C21.8089 77.7653 21.8545 77.8711 21.8545 78.0078C21.8545 78.1048 21.8333 78.1859 21.791 78.251C21.7493 78.3154 21.6859 78.3669 21.6006 78.4053L21.9082 78.9863V79H21.5938L21.3271 78.4795ZM21.0938 78.2422H21.3301C21.4036 78.2422 21.4606 78.2236 21.501 78.1865C21.5413 78.1488 21.5615 78.097 21.5615 78.0312C21.5615 77.9642 21.5423 77.9115 21.5039 77.873C21.4661 77.8346 21.4079 77.8154 21.3291 77.8154H21.0938V78.2422ZM22.584 78.6475L22.9062 77.5781H23.2324L22.7373 79H22.4316L21.9385 77.5781H22.2637L22.584 78.6475ZM24.2227 78.3838H23.6602V78.7646H24.3203V79H23.3672V77.5781H24.3184V77.8154H23.6602V78.1543H24.2227V78.3838ZM25.2832 78.499V79H24.9902V77.5781H25.5449C25.6517 77.5781 25.7454 77.5977 25.8262 77.6367C25.9076 77.6758 25.9701 77.7314 26.0137 77.8037C26.0573 77.8753 26.0791 77.957 26.0791 78.0488C26.0791 78.1882 26.0312 78.2982 25.9355 78.3789C25.8405 78.459 25.7087 78.499 25.54 78.499H25.2832ZM25.2832 78.2617H25.5449C25.6224 78.2617 25.6813 78.2435 25.7217 78.207C25.7627 78.1706 25.7832 78.1185 25.7832 78.0508C25.7832 77.9811 25.7627 77.9248 25.7217 77.8818C25.6807 77.8389 25.624 77.8167 25.5518 77.8154H25.2832V78.2617ZM26.9102 78.707H26.3965L26.2988 79H25.9873L26.5166 77.5781H26.7881L27.3203 79H27.0088L26.9102 78.707ZM26.4756 78.4697H26.8311L26.6523 77.9375L26.4756 78.4697ZM28.5479 78.5264C28.5368 78.6794 28.4801 78.7998 28.3779 78.8877C28.2764 78.9756 28.1423 79.0195 27.9756 79.0195C27.7933 79.0195 27.6497 78.9583 27.5449 78.8359C27.4408 78.7129 27.3887 78.5443 27.3887 78.3301V78.2432C27.3887 78.1064 27.4128 77.986 27.4609 77.8818C27.5091 77.7777 27.5778 77.6979 27.667 77.6426C27.7568 77.5866 27.861 77.5586 27.9795 77.5586C28.1436 77.5586 28.2757 77.6025 28.376 77.6904C28.4762 77.7783 28.5342 77.9017 28.5498 78.0605H28.2568C28.2497 77.9688 28.224 77.9023 28.1797 77.8613C28.1361 77.8197 28.0693 77.7988 27.9795 77.7988C27.8818 77.7988 27.8086 77.834 27.7598 77.9043C27.7116 77.974 27.6868 78.0824 27.6855 78.2295V78.3369C27.6855 78.4906 27.7087 78.6029 27.7549 78.6738C27.8018 78.7448 27.8753 78.7803 27.9756 78.7803C28.0661 78.7803 28.1335 78.7598 28.1777 78.7188C28.2227 78.6771 28.2484 78.613 28.2549 78.5264H28.5479ZM29.1855 78.4297L29.0332 78.5938V79H28.7402V77.5781H29.0332V78.2227L29.1621 78.0459L29.5244 77.5781H29.8848L29.3799 78.21L29.8994 79H29.5508L29.1855 78.4297ZM30.8652 78.3838H30.3027V78.7646H30.9629V79H30.0098V77.5781H30.9609V77.8154H30.3027V78.1543H30.8652V78.3838ZM32.2246 77.8154H31.7891V79H31.4961V77.8154H31.0664V77.5781H32.2246V77.8154ZM33.1143 78.627C33.1143 78.5716 33.0947 78.5293 33.0557 78.5C33.0166 78.4701 32.9463 78.4388 32.8447 78.4062C32.7432 78.373 32.6628 78.3405 32.6035 78.3086C32.4421 78.2214 32.3613 78.1038 32.3613 77.9561C32.3613 77.8792 32.3828 77.8109 32.4258 77.751C32.4694 77.6904 32.5316 77.6432 32.6123 77.6094C32.6937 77.5755 32.7848 77.5586 32.8857 77.5586C32.9873 77.5586 33.0778 77.5771 33.1572 77.6143C33.2367 77.6507 33.2982 77.7025 33.3418 77.7695C33.3861 77.8366 33.4082 77.9128 33.4082 77.998H33.1152C33.1152 77.9329 33.0947 77.8825 33.0537 77.8467C33.0127 77.8102 32.9551 77.792 32.8809 77.792C32.8092 77.792 32.7536 77.8073 32.7139 77.8379C32.6742 77.8678 32.6543 77.9076 32.6543 77.957C32.6543 78.0033 32.6774 78.042 32.7236 78.0732C32.7705 78.1045 32.8392 78.1338 32.9297 78.1611C33.0964 78.2113 33.2178 78.2734 33.2939 78.3477C33.3701 78.4219 33.4082 78.5143 33.4082 78.625C33.4082 78.748 33.3617 78.8447 33.2686 78.915C33.1755 78.9847 33.0501 79.0195 32.8926 79.0195C32.7832 79.0195 32.6836 78.9997 32.5938 78.96C32.5039 78.9196 32.4352 78.8646 32.3877 78.7949C32.3408 78.7253 32.3174 78.6445 32.3174 78.5527H32.6113C32.6113 78.7096 32.7051 78.7881 32.8926 78.7881C32.9622 78.7881 33.0166 78.7741 33.0557 78.7461C33.0947 78.7174 33.1143 78.6777 33.1143 78.627Z" fill="white"/>
<path d="M7.979 4.50684H9.59277V5H7.36133V1.44531H7.979V4.50684ZM12.105 4.17236H10.728L10.4399 5H9.79785L11.1406 1.44531H11.6948L13.04 5H12.3955L12.105 4.17236ZM10.9014 3.67432H11.9316L11.4165 2.19971L10.9014 3.67432ZM16.2651 5H15.6475L14.063 2.47803V5H13.4453V1.44531H14.063L15.6523 3.97705V1.44531H16.2651V5ZM16.9951 5V1.44531H18.0449C18.359 1.44531 18.6374 1.5153 18.8799 1.65527C19.124 1.79525 19.3128 1.99382 19.4463 2.25098C19.5798 2.50814 19.6465 2.80273 19.6465 3.13477V3.31299C19.6465 3.6499 19.5789 3.94613 19.4438 4.20166C19.3104 4.45719 19.1191 4.65413 18.8701 4.79248C18.6227 4.93083 18.3387 5 18.0181 5H16.9951ZM17.6128 1.94336V4.50684H18.0156C18.3395 4.50684 18.5877 4.40592 18.7603 4.2041C18.9344 4.00065 19.0231 3.70931 19.0264 3.33008V3.13232C19.0264 2.74658 18.9425 2.45199 18.7749 2.24854C18.6073 2.04508 18.3639 1.94336 18.0449 1.94336H17.6128ZM22.3101 3.49365H20.8794V5H20.2617V1.44531H22.52V1.94336H20.8794V3.00049H22.3101V3.49365ZM23.6626 5H23.0474V1.44531H23.6626V5ZM25.0396 4.50684H26.6533V5H24.4219V1.44531H25.0396V4.50684ZM27.7446 4.50684H29.3584V5H27.127V1.44531H27.7446V4.50684Z" fill="#1A1A1A"/>
<defs>
<filter id="filter0_i_5_6" x="2" y="8" width="32" height="24" filterUnits="userSpaceOnUse" color-interpolation-filters="sRGB">
<feFlood flood-opacity="0" result="BackgroundImageFix"/>
<feBlend mode="normal" in="SourceGraphic" in2="BackgroundImageFix" result="shape"/>
<feColorMatrix in="SourceAlpha" type="matrix" values="0 0 0 0 0 0 0 0 0 0 0 0 0 0 0 0 0 0 127 0" result="hardAlpha"/>
<feOffset dy="4"/>
<feGaussianBlur stdDeviation="2"/>
<feComposite in2="hardAlpha" operator="arithmetic" k2="-1" k3="1"/>
<feColorMatrix type="matrix" values="0 0 0 0 0 0 0 0 0 0 0 0 0 0 0 0 0 0 0.25 0"/>
<feBlend mode="normal" in2="shape" result="effect1_innerShadow_5_6"/>
</filter>
</defs>
</svg>
