<svg width="36" height="87" viewBox="0 0 36 87" fill="none" xmlns="http://www.w3.org/2000/svg">
<rect width="36" height="87" fill="#00AAB3"/>
<rect x="2" y="39" width="32" height="42" fill="#1A1A1A"/>
<path d="M7.45703 45.1797L7.83984 43.1562H8.42383L7.79297 46H7.20312L6.74023 44.0977L6.27734 46H5.6875L5.05664 43.1562H5.64062L6.02539 45.1758L6.49414 43.1562H6.99023L7.45703 45.1797ZM11.0566 46H10.4707V44.7812H9.32812V46H8.74219V43.1562H9.32812V44.3086H10.4707V43.1562H11.0566V46ZM12.1934 46H11.6074V43.1562H12.1934V46ZM14.8203 43.6309H13.9492V46H13.3633V43.6309H12.5039V43.1562H14.8203V43.6309ZM16.8672 44.7676H15.7422V45.5293H17.0625V46H15.1562V43.1562H17.0586V43.6309H15.7422V44.3086H16.8672V44.7676ZM18.9883 44.998V46H18.4023V43.1562H19.5117C19.7253 43.1562 19.9128 43.1953 20.0742 43.2734C20.237 43.3516 20.362 43.4629 20.4492 43.6074C20.5365 43.7507 20.5801 43.9141 20.5801 44.0977C20.5801 44.3763 20.4844 44.5964 20.293 44.7578C20.1029 44.918 19.8392 44.998 19.502 44.998H18.9883ZM18.9883 44.5234H19.5117C19.6667 44.5234 19.7845 44.487 19.8652 44.4141C19.9473 44.3411 19.9883 44.237 19.9883 44.1016C19.9883 43.9622 19.9473 43.8496 19.8652 43.7637C19.7832 43.6777 19.6699 43.6335 19.5254 43.6309H18.9883V44.5234ZM22.2422 45.4141H21.2148L21.0195 46H20.3965L21.4551 43.1562H21.998L23.0625 46H22.4395L22.2422 45.4141ZM21.373 44.9395H22.084L21.7266 43.875L21.373 44.9395ZM23.9141 44.998V46H23.3281V43.1562H24.4375C24.651 43.1562 24.8385 43.1953 25 43.2734C25.1628 43.3516 25.2878 43.4629 25.375 43.6074C25.4622 43.7507 25.5059 43.9141 25.5059 44.0977C25.5059 44.3763 25.4102 44.5964 25.2188 44.7578C25.0286 44.918 24.765 44.998 24.4277 44.998H23.9141ZM23.9141 44.5234H24.4375C24.5924 44.5234 24.7103 44.487 24.791 44.4141C24.873 44.3411 24.9141 44.237 24.9141 44.1016C24.9141 43.9622 24.873 43.8496 24.791 43.7637C24.709 43.6777 24.5957 43.6335 24.4512 43.6309H23.9141V44.5234ZM27.6211 44.7676H26.4961V45.5293H27.8164V46H25.9102V43.1562H27.8125V43.6309H26.4961V44.3086H27.6211V44.7676ZM29.2129 44.959H28.7461V46H28.1602V43.1562H29.2168C29.5527 43.1562 29.8118 43.2311 29.9941 43.3809C30.1764 43.5306 30.2676 43.7422 30.2676 44.0156C30.2676 44.2096 30.2253 44.3717 30.1406 44.502C30.0573 44.6309 29.9303 44.7337 29.7598 44.8105L30.375 45.9727V46H29.7461L29.2129 44.959ZM28.7461 44.4844H29.2188C29.3659 44.4844 29.4798 44.4473 29.5605 44.373C29.6413 44.2975 29.6816 44.194 29.6816 44.0625C29.6816 43.9284 29.6432 43.8229 29.5664 43.7461C29.4909 43.6693 29.3743 43.6309 29.2168 43.6309H28.7461V44.4844ZM4.83203 59.998V61H4.24609V58.1562H5.35547C5.56901 58.1562 5.75651 58.1953 5.91797 58.2734C6.08073 58.3516 6.20573 58.4629 6.29297 58.6074C6.38021 58.7507 6.42383 58.9141 6.42383 59.0977C6.42383 59.3763 6.32812 59.5964 6.13672 59.7578C5.94661 59.918 5.68294 59.998 5.3457 59.998H4.83203ZM4.83203 59.5234H5.35547C5.51042 59.5234 5.62826 59.487 5.70898 59.4141C5.79102 59.3411 5.83203 59.237 5.83203 59.1016C5.83203 58.9622 5.79102 58.8496 5.70898 58.7637C5.62695 58.6777 5.51367 58.6335 5.36914 58.6309H4.83203V59.5234ZM8.08594 60.4141H7.05859L6.86328 61H6.24023L7.29883 58.1562H7.8418L8.90625 61H8.2832L8.08594 60.4141ZM7.2168 59.9395H7.92773L7.57031 58.875L7.2168 59.9395ZM10.6465 60.2539C10.6465 60.1432 10.6074 60.0586 10.5293 60C10.4512 59.9401 10.3105 59.8776 10.1074 59.8125C9.9043 59.7461 9.74349 59.681 9.625 59.6172C9.30208 59.4427 9.14062 59.2077 9.14062 58.9121C9.14062 58.7585 9.18359 58.6217 9.26953 58.502C9.35677 58.3809 9.48112 58.2865 9.64258 58.2188C9.80534 58.151 9.98763 58.1172 10.1895 58.1172C10.3926 58.1172 10.5736 58.1543 10.7324 58.2285C10.8913 58.3014 11.0143 58.4049 11.1016 58.5391C11.1901 58.6732 11.2344 58.8255 11.2344 58.9961H10.6484C10.6484 58.8659 10.6074 58.765 10.5254 58.6934C10.4434 58.6204 10.3281 58.584 10.1797 58.584C10.0365 58.584 9.92513 58.6146 9.8457 58.6758C9.76628 58.7357 9.72656 58.8151 9.72656 58.9141C9.72656 59.0065 9.77279 59.084 9.86523 59.1465C9.95898 59.209 10.0964 59.2676 10.2773 59.3223C10.6107 59.4225 10.8535 59.5469 11.0059 59.6953C11.1582 59.8438 11.2344 60.0286 11.2344 60.25C11.2344 60.4961 11.1413 60.6895 10.9551 60.8301C10.7689 60.9694 10.5182 61.0391 10.2031 61.0391C9.98438 61.0391 9.78516 60.9993 9.60547 60.9199C9.42578 60.8392 9.28841 60.7292 9.19336 60.5898C9.09961 60.4505 9.05273 60.2891 9.05273 60.1055H9.64062C9.64062 60.4193 9.82812 60.5762 10.2031 60.5762C10.3424 60.5762 10.4512 60.5482 10.5293 60.4922C10.6074 60.4349 10.6465 60.3555 10.6465 60.2539ZM13.7734 58.6309H12.9023V61H12.3164V58.6309H11.457V58.1562H13.7734V58.6309ZM15.8203 59.7676H14.6953V60.5293H16.0156V61H14.1094V58.1562H16.0117V58.6309H14.6953V59.3086H15.8203V59.7676ZM16.9453 60.5293H18.1895V61H16.3594V58.1562H16.9453V60.5293ZM20.1094 59.998V61H19.5234V58.1562H20.6328C20.8464 58.1562 21.0339 58.1953 21.1953 58.2734C21.3581 58.3516 21.4831 58.4629 21.5703 58.6074C21.6576 58.7507 21.7012 58.9141 21.7012 59.0977C21.7012 59.3763 21.6055 59.5964 21.4141 59.7578C21.224 59.918 20.9603 59.998 20.623 59.998H20.1094ZM20.1094 59.5234H20.6328C20.7878 59.5234 20.9056 59.487 20.9863 59.4141C21.0684 59.3411 21.1094 59.237 21.1094 59.1016C21.1094 58.9622 21.0684 58.8496 20.9863 58.7637C20.9043 58.6777 20.791 58.6335 20.6465 58.6309H20.1094V59.5234ZM23.3633 60.4141H22.3359L22.1406 61H21.5176L22.5762 58.1562H23.1191L24.1836 61H23.5605L23.3633 60.4141ZM22.4941 59.9395H23.2051L22.8477 58.875L22.4941 59.9395ZM25.0352 59.998V61H24.4492V58.1562H25.5586C25.7721 58.1562 25.9596 58.1953 26.1211 58.2734C26.2839 58.3516 26.4089 58.4629 26.4961 58.6074C26.5833 58.7507 26.627 58.9141 26.627 59.0977C26.627 59.3763 26.5312 59.5964 26.3398 59.7578C26.1497 59.918 25.8861 59.998 25.5488 59.998H25.0352ZM25.0352 59.5234H25.5586C25.7135 59.5234 25.8314 59.487 25.9121 59.4141C25.9941 59.3411 26.0352 59.237 26.0352 59.1016C26.0352 58.9622 25.9941 58.8496 25.9121 58.7637C25.8301 58.6777 25.7168 58.6335 25.5723 58.6309H25.0352V59.5234ZM28.7422 59.7676H27.6172V60.5293H28.9375V61H27.0312V58.1562H28.9336V58.6309H27.6172V59.3086H28.7422V59.7676ZM30.334 59.959H29.8672V61H29.2812V58.1562H30.3379C30.6738 58.1562 30.9329 58.2311 31.1152 58.3809C31.2975 58.5306 31.3887 58.7422 31.3887 59.0156C31.3887 59.2096 31.3464 59.3717 31.2617 59.502C31.1784 59.6309 31.0514 59.7337 30.8809 59.8105L31.4961 60.9727V61H30.8672L30.334 59.959ZM29.8672 59.4844H30.3398C30.487 59.4844 30.6009 59.4473 30.6816 59.373C30.7624 59.2975 30.8027 59.194 30.8027 59.0625C30.8027 58.9284 30.7643 58.8229 30.6875 58.7461C30.612 58.6693 30.4954 58.6309 30.3379 58.6309H29.8672V59.4844ZM8.94531 74.7676H7.82031V75.5293H9.14062V76H7.23438V73.1562H9.13672V73.6309H7.82031V74.3086H8.94531V74.7676ZM11.7969 76H11.2109L10.0703 74.1289V76H9.48438V73.1562H10.0703L11.2129 75.0312V73.1562H11.7969V76ZM13.3594 75.2949L14.0039 73.1562H14.6562L13.666 76H13.0547L12.0684 73.1562H12.7188L13.3594 75.2949ZM16.6367 74.7676H15.5117V75.5293H16.832V76H14.9258V73.1562H16.8281V73.6309H15.5117V74.3086H16.6367V74.7676ZM17.7617 75.5293H19.0059V76H17.1758V73.1562H17.7617V75.5293ZM21.5547 74.6426C21.5547 74.9225 21.5052 75.168 21.4062 75.3789C21.3073 75.5898 21.1654 75.7526 20.9805 75.8672C20.7969 75.9818 20.5859 76.0391 20.3477 76.0391C20.112 76.0391 19.9017 75.9824 19.7168 75.8691C19.5319 75.7559 19.3887 75.5944 19.2871 75.3848C19.1855 75.1738 19.1341 74.9316 19.1328 74.6582V74.5176C19.1328 74.2376 19.1829 73.9915 19.2832 73.7793C19.3848 73.5658 19.5273 73.4023 19.7109 73.2891C19.8958 73.1745 20.1068 73.1172 20.3438 73.1172C20.5807 73.1172 20.791 73.1745 20.9746 73.2891C21.1595 73.4023 21.3021 73.5658 21.4023 73.7793C21.5039 73.9915 21.5547 74.237 21.5547 74.5156V74.6426ZM20.9609 74.5137C20.9609 74.2155 20.9076 73.9889 20.8008 73.834C20.694 73.679 20.5417 73.6016 20.3438 73.6016C20.1471 73.6016 19.9954 73.6784 19.8887 73.832C19.7819 73.9844 19.7279 74.2083 19.7266 74.5039V74.6426C19.7266 74.9329 19.7799 75.1582 19.8867 75.3184C19.9935 75.4785 20.1471 75.5586 20.3477 75.5586C20.5443 75.5586 20.6953 75.4818 20.8008 75.3281C20.9062 75.1732 20.9596 74.9479 20.9609 74.6523V74.5137ZM22.5664 74.998V76H21.9805V73.1562H23.0898C23.3034 73.1562 23.4909 73.1953 23.6523 73.2734C23.8151 73.3516 23.9401 73.4629 24.0273 73.6074C24.1146 73.7507 24.1582 73.9141 24.1582 74.0977C24.1582 74.3763 24.0625 74.5964 23.8711 74.7578C23.681 74.918 23.4173 74.998 23.0801 74.998H22.5664ZM22.5664 74.5234H23.0898C23.2448 74.5234 23.3626 74.487 23.4434 74.4141C23.5254 74.3411 23.5664 74.237 23.5664 74.1016C23.5664 73.9622 23.5254 73.8496 23.4434 73.7637C23.3613 73.6777 23.248 73.6335 23.1035 73.6309H22.5664V74.5234ZM26.2734 74.7676H25.1484V75.5293H26.4688V76H24.5625V73.1562H26.4648V73.6309H25.1484V74.3086H26.2734V74.7676ZM28.2871 75.2539C28.2871 75.1432 28.248 75.0586 28.1699 75C28.0918 74.9401 27.9512 74.8776 27.748 74.8125C27.5449 74.7461 27.3841 74.681 27.2656 74.6172C26.9427 74.4427 26.7812 74.2077 26.7812 73.9121C26.7812 73.7585 26.8242 73.6217 26.9102 73.502C26.9974 73.3809 27.1217 73.2865 27.2832 73.2188C27.446 73.151 27.6283 73.1172 27.8301 73.1172C28.0332 73.1172 28.2142 73.1543 28.373 73.2285C28.5319 73.3014 28.6549 73.4049 28.7422 73.5391C28.8307 73.6732 28.875 73.8255 28.875 73.9961H28.2891C28.2891 73.8659 28.248 73.765 28.166 73.6934C28.084 73.6204 27.9688 73.584 27.8203 73.584C27.6771 73.584 27.5658 73.6146 27.4863 73.6758C27.4069 73.7357 27.3672 73.8151 27.3672 73.9141C27.3672 74.0065 27.4134 74.084 27.5059 74.1465C27.5996 74.209 27.737 74.2676 27.918 74.3223C28.2513 74.4225 28.4941 74.5469 28.6465 74.6953C28.7988 74.8438 28.875 75.0286 28.875 75.25C28.875 75.4961 28.7819 75.6895 28.5957 75.8301C28.4095 75.9694 28.1589 76.0391 27.8438 76.0391C27.625 76.0391 27.4258 75.9993 27.2461 75.9199C27.0664 75.8392 26.929 75.7292 26.834 75.5898C26.7402 75.4505 26.6934 75.2891 26.6934 75.1055H27.2812C27.2812 75.4193 27.4688 75.5762 27.8438 75.5762C27.9831 75.5762 28.0918 75.5482 28.1699 75.4922C28.248 75.4349 28.2871 75.3555 28.2871 75.2539Z" fill="white"/>
<g filter="url(#filter0_i_5_5)">
<rect x="2" y="8" width="32" height="20" fill="white"/>
</g>
<path d="M5.19824 3.31543C5.19824 3.66374 5.13802 3.96973 5.01758 4.2334C4.89714 4.49544 4.72461 4.69727 4.5 4.83887C4.27702 4.97884 4.01986 5.04883 3.72852 5.04883C3.44043 5.04883 3.18327 4.97884 2.95703 4.83887C2.73242 4.69727 2.55827 4.49626 2.43457 4.23584C2.3125 3.97542 2.25065 3.67513 2.24902 3.33496V3.13477C2.24902 2.78809 2.31006 2.4821 2.43213 2.2168C2.55583 1.9515 2.72917 1.74886 2.95215 1.60889C3.17676 1.46729 3.43392 1.39648 3.72363 1.39648C4.01335 1.39648 4.26969 1.46647 4.49268 1.60645C4.71729 1.74479 4.89062 1.94499 5.0127 2.20703C5.13477 2.46745 5.19661 2.771 5.19824 3.11768V3.31543ZM4.58057 3.12988C4.58057 2.736 4.5057 2.43408 4.35596 2.22412C4.20785 2.01416 3.99707 1.90918 3.72363 1.90918C3.45671 1.90918 3.24756 2.01416 3.09619 2.22412C2.94645 2.43245 2.86995 2.72786 2.8667 3.11035V3.31543C2.8667 3.70605 2.94238 4.00798 3.09375 4.22119C3.24674 4.43441 3.45833 4.54102 3.72852 4.54102C4.00195 4.54102 4.21191 4.43685 4.3584 4.22852C4.50651 4.02018 4.58057 3.71582 4.58057 3.31543V3.12988ZM7.86182 3.49365H6.43115V5H5.81348V1.44531H8.07178V1.94336H6.43115V3.00049H7.86182V3.49365ZM10.6108 3.49365H9.18018V5H8.5625V1.44531H10.8208V1.94336H9.18018V3.00049H10.6108V3.49365ZM11.9634 5H11.3481V1.44531H11.9634V5ZM15.4351 3.84277C15.3993 4.22201 15.2593 4.51823 15.0151 4.73145C14.771 4.94303 14.4463 5.04883 14.041 5.04883C13.7578 5.04883 13.508 4.9821 13.2915 4.84863C13.0767 4.71354 12.9106 4.5223 12.7935 4.2749C12.6763 4.02751 12.6152 3.74023 12.6104 3.41309V3.08105C12.6104 2.74577 12.6698 2.45036 12.7886 2.19482C12.9074 1.93929 13.0775 1.74235 13.2988 1.604C13.5218 1.46566 13.779 1.39648 14.0703 1.39648C14.4626 1.39648 14.7783 1.50309 15.0176 1.71631C15.2568 1.92952 15.396 2.23063 15.4351 2.61963H14.8198C14.7905 2.3641 14.7157 2.18018 14.5952 2.06787C14.4764 1.95394 14.3014 1.89697 14.0703 1.89697C13.8018 1.89697 13.5951 1.99544 13.4502 2.19238C13.307 2.3877 13.2337 2.67497 13.2305 3.0542V3.36914C13.2305 3.75326 13.2988 4.04622 13.4355 4.24805C13.5739 4.44987 13.7757 4.55078 14.041 4.55078C14.2835 4.55078 14.4658 4.49626 14.5879 4.38721C14.71 4.27816 14.7873 4.09668 14.8198 3.84277H15.4351ZM18.0669 3.41309H16.6069V4.50684H18.3135V5H15.9893V1.44531H18.2964V1.94336H16.6069V2.9248H18.0669V3.41309ZM20.6792 3.6792V5H20.0615V1.44531H21.4214C21.8185 1.44531 22.1335 1.54867 22.3662 1.75537C22.6006 1.96208 22.7178 2.23551 22.7178 2.57568C22.7178 2.92399 22.603 3.19499 22.3735 3.38867C22.1457 3.58236 21.8258 3.6792 21.4141 3.6792H20.6792ZM20.6792 3.18359H21.4214C21.6411 3.18359 21.8088 3.13232 21.9243 3.02979C22.0399 2.92562 22.0977 2.77588 22.0977 2.58057C22.0977 2.38851 22.0391 2.23551 21.9219 2.12158C21.8047 2.00602 21.6436 1.94661 21.4385 1.94336H20.6792V3.18359ZM24.8149 4.17236H23.438L23.1499 5H22.5078L23.8506 1.44531H24.4048L25.75 5H25.1055L24.8149 4.17236ZM23.6113 3.67432H24.6416L24.1265 2.19971L23.6113 3.67432ZM26.7729 3.6792V5H26.1553V1.44531H27.5151C27.9123 1.44531 28.2272 1.54867 28.46 1.75537C28.6943 1.96208 28.8115 2.23551 28.8115 2.57568C28.8115 2.92399 28.6968 3.19499 28.4673 3.38867C28.2394 3.58236 27.9196 3.6792 27.5078 3.6792H26.7729ZM26.7729 3.18359H27.5151C27.7349 3.18359 27.9025 3.13232 28.0181 3.02979C28.1336 2.92562 28.1914 2.77588 28.1914 2.58057C28.1914 2.38851 28.1328 2.23551 28.0156 2.12158C27.8984 2.00602 27.7373 1.94661 27.5322 1.94336H26.7729V3.18359ZM31.4312 3.41309H29.9712V4.50684H31.6777V5H29.3535V1.44531H31.6606V1.94336H29.9712V2.9248H31.4312V3.41309ZM33.4868 3.63037H32.7983V5H32.1807V1.44531H33.4307C33.8408 1.44531 34.1574 1.53727 34.3804 1.72119C34.6034 1.90511 34.7148 2.17122 34.7148 2.51953C34.7148 2.75716 34.6571 2.95654 34.5415 3.11768C34.4276 3.27718 34.2681 3.40007 34.063 3.48633L34.8613 4.96826V5H34.1997L33.4868 3.63037ZM32.7983 3.13477H33.4331C33.6414 3.13477 33.8042 3.08268 33.9214 2.97852C34.0386 2.87272 34.0972 2.72868 34.0972 2.54639C34.0972 2.35596 34.0426 2.20866 33.9336 2.10449C33.8262 2.00033 33.665 1.94661 33.4502 1.94336H32.7983V3.13477Z" fill="#1A1A1A"/>
<defs>
<filter id="filter0_i_5_5" x="2" y="8" width="32" height="24" filterUnits="userSpaceOnUse" color-interpolation-filters="sRGB">
<feFlood flood-opacity="0" result="BackgroundImageFix"/>
<feBlend mode="normal" in="SourceGraphic" in2="BackgroundImageFix" result="shape"/>
<feColorMatrix in="SourceAlpha" type="matrix" values="0 0 0 0 0 0 0 0 0 0 0 0 0 0 0 0 0 0 127 0" result="hardAlpha"/>
<feOffset dy="4"/>
<feGaussianBlur stdDeviation="2"/>
<feComposite in2="hardAlpha" operator="arithmetic" k2="-1" k3="1"/>
<feColorMatrix type="matrix" values="0 0 0 0 0 0 0 0 0 0 0 0 0 0 0 0 0 0 0.25 0"/>
<feBlend mode="normal" in2="shape" result="effect1_innerShadow_5_5"/>
</filter>
</defs>
</svg>
